<svg width="66" height="66" viewBox="0 0 66 66" fill="none" xmlns="http://www.w3.org/2000/svg">
<path d="M42.1979 64.9001C37.3982 64.9001 36.1246 62.781 36.0839 58.2328L35.8526 32.9255C35.8486 32.472 35.8198 32.0016 35.79 31.5281C35.658 29.3931 35.5091 26.974 37.6563 25.5925C40.3376 23.8671 44.2191 23.9748 47.2439 24.0316C50.7749 24.0914 56.0621 24.1123 58.3066 27.8641C59.4065 29.7041 59.4035 31.9776 59.3995 33.8057L59.3509 57.4813C59.3469 59.5077 59.2258 61.6038 57.834 63.0212C56.4651 64.4136 54.4122 64.5821 52.4258 64.6349C51.8738 64.6509 42.7459 64.9001 42.1979 64.9001ZM38.1914 26.4327C36.5365 27.4973 36.6547 29.427 36.7808 31.4683C36.8641 32.789 36.8205 30.1456 37.0766 58.2249C37.1391 65.226 39.8462 63.9761 52.398 63.6402C57.1282 63.5166 58.3473 62.2716 58.3572 57.4813L58.4058 33.8057C58.4098 32.0125 58.4138 29.9812 57.4548 28.3804C55.5369 25.1739 50.8305 25.0921 47.224 25.0313C44.4544 24.9775 40.5977 24.8858 38.1914 26.4327Z" stroke="#0E0E0E"/>
<path d="M47.3183 61.7752C46.5907 61.7752 45.868 61.6935 45.1731 61.531C42.185 60.8313 38.6728 58.3654 37.7417 55.0054C36.2715 49.7057 40.0974 43.2308 46.8527 43.2308C49.8735 43.2308 52.6531 44.6572 54.4777 47.144C58.6659 52.8494 55.523 61.7752 47.3183 61.7752ZM46.8517 44.2266C40.8002 44.2266 37.3883 50.0177 38.6967 54.7382C39.5157 57.6926 42.7608 59.9422 45.3974 60.5592C46.0189 60.7047 46.6651 60.7785 47.3173 60.7785C54.6643 60.7785 57.4181 52.8305 53.6766 47.7351C52.0168 45.4725 49.5936 44.2266 46.8517 44.2266Z" stroke="#0E0E0E"/>
<path d="M46.9163 58.0903C45.0093 58.0903 43.2036 56.8473 42.2049 54.8469C41.1884 52.8125 41.2737 50.5888 42.4243 49.0408C43.5848 47.4799 45.4113 46.547 47.3094 46.547C49.7435 46.547 51.7021 48.0242 52.4188 50.4034C53.5624 54.201 50.4453 58.0903 46.9163 58.0903ZM47.3084 47.5437C45.722 47.5437 44.1923 48.3262 43.2184 49.6369C41.239 52.3022 43.5738 57.0935 46.9163 57.0935C49.7921 57.0935 52.4099 53.8182 51.4688 50.6915C50.768 48.371 48.861 47.5437 47.3084 47.5437Z" stroke="#0E0E0E"/>
<path d="M43.554 38.3079C42.9047 36.9045 43.1152 35.2987 44.1049 34.1186C44.8266 33.2594 45.9792 32.767 47.2697 32.767C48.5651 32.767 49.7663 33.2703 50.4821 34.1126C51.6922 35.5349 51.6594 38.2351 48.3914 39.9375C46.3187 41.011 44.364 40.0542 43.554 38.3079ZM47.2687 33.7627C46.272 33.7627 45.3954 34.1265 44.8643 34.7605C43.0139 36.9643 45.179 40.4828 47.9328 39.0504C51.6217 37.1367 50.4543 33.7627 47.2687 33.7627Z" stroke="#0E0E0E"/>
<path d="M48.8014 29.2615C48.7895 29.2615 48.7776 29.2615 48.7667 29.2605L44.3561 28.9594C44.0831 28.9405 43.8766 28.7023 43.8945 28.4282C43.9143 28.1541 44.1466 27.9458 44.4236 27.9647L48.8342 28.2657C49.1072 28.2847 49.3136 28.5229 49.2958 28.797C49.2779 29.0601 49.0595 29.2615 48.8014 29.2615Z" stroke="#0E0E0E"/>
<path d="M13.2785 64.895C8.59886 64.895 7.00458 63.2145 6.95891 58.2328L6.72861 32.9255C6.72464 32.472 6.69585 32.0015 6.66607 31.5281C6.53404 29.393 6.38513 26.9739 8.53235 25.5925C11.3814 23.7585 15.5667 23.9887 18.9746 24.0465C28.6445 24.1731 30.2865 27.6178 30.2736 33.8056L30.2249 57.4813C30.209 65.6785 26.5748 64.5472 13.884 64.8871C13.6756 64.894 13.474 64.895 13.2785 64.895ZM16.3102 25.0074C13.9704 25.0074 11.032 25.1698 9.06742 26.4327C7.41258 27.4972 7.53071 29.4269 7.65679 31.4683C7.68756 31.9597 7.71734 32.4471 7.72131 32.9175L7.95162 58.2248C8.01515 65.2339 10.7103 63.976 23.274 63.6401C28.0142 63.5155 29.2233 62.2646 29.2332 57.4813L29.2819 33.8056C29.2858 32.0115 29.2898 29.9791 28.3318 28.3804C26.6254 25.5277 22.6387 25.0931 18.9627 25.0452L18.101 25.0303C17.5272 25.0193 16.9257 25.0074 16.3102 25.0074Z" stroke="#0E0E0E"/>
<path d="M18.1943 61.7752C17.4667 61.7752 16.744 61.6935 16.0491 61.531C13.0611 60.8323 9.54888 58.3654 8.61773 55.0054C7.72429 51.7869 8.85796 47.9355 11.3755 45.64C14.0518 43.1979 18.2619 42.4962 21.6341 44.0711C27.6389 46.8729 28.8352 54.7103 24.9368 58.9405C23.275 60.7406 20.8181 61.7752 18.1943 61.7752ZM12.0426 46.3766C9.7921 48.4298 8.77656 51.8676 9.5737 54.7372C10.3927 57.6926 13.6378 59.9432 16.2745 60.5592C19.0163 61.2031 22.2039 60.4366 24.2082 58.2617C27.6518 54.5269 26.6383 47.5099 21.2151 44.9731C18.2221 43.5777 14.4429 44.1877 12.0426 46.3766Z" stroke="#0E0E0E"/>
<path d="M16.6973 57.9128C15.0405 57.5819 13.5614 56.1955 12.8347 54.2967C12.1021 52.3809 12.2749 50.4163 13.2983 49.0418C14.4588 47.4809 16.2854 46.548 18.1834 46.548C20.6185 46.548 22.5761 48.0251 23.2939 50.4044C23.827 52.1706 23.4765 54.0714 22.3339 55.6173C21.0434 57.3636 18.9021 58.3524 16.6973 57.9128ZM18.1834 47.5437C16.5971 47.5437 15.0673 48.3262 14.0935 49.6369C12.3453 51.9902 14.0419 56.3639 16.8909 56.935C18.6153 57.2819 20.4279 56.5234 21.5358 55.0233C22.4898 53.7325 22.7846 52.1537 22.3429 50.6914C21.644 48.371 19.736 47.5437 18.1834 47.5437Z" stroke="#0E0E0E"/>
<path d="M14.981 34.1186C15.7017 33.2604 16.8552 32.767 18.1447 32.767C19.4402 32.767 20.6424 33.2703 21.3581 34.1126C22.5771 35.5449 22.5215 38.2431 19.2665 39.9375C15.4922 41.8941 12.4625 37.1227 14.981 34.1186ZM18.1437 33.7627C15.5865 33.7627 14.4906 36.0762 15.3304 37.8872C15.9588 39.2428 17.419 39.7771 18.8078 39.0504C21.3988 37.7028 21.4613 35.7682 20.6036 34.7585C20.0725 34.1355 19.1533 33.7627 18.1437 33.7627Z" stroke="#0E0E0E"/>
<path d="M19.6774 29.2615C19.6655 29.2615 19.6546 29.2615 19.6427 29.2605L15.2321 28.9594C14.9591 28.9405 14.7526 28.7023 14.7705 28.4282C14.7904 28.1541 15.0286 27.9458 15.2996 27.9647L19.7102 28.2657C19.9832 28.2847 20.1897 28.5229 20.1718 28.797C20.1539 29.0601 19.9356 29.2615 19.6774 29.2615Z" stroke="#0E0E0E"/>
<path d="M26.1171 15.3688C25.9583 15.3688 25.8074 15.2921 25.7141 15.1605C23.7346 12.3836 23.0467 8.74747 23.8746 5.43529C24.4127 3.28631 25.5969 1.77027 27.1237 1.27688C29.5767 0.481478 32.0446 2.48393 31.9056 4.97081C34.1134 4.13454 37.5551 5.93964 36.886 9.1362C36.0968 12.9069 29.3325 14.9612 26.1807 15.3648C26.1588 15.3678 26.137 15.3688 26.1171 15.3688ZM27.4275 2.22478C25.7329 2.77299 25.052 4.82229 24.8385 5.6785C24.1039 8.6139 24.6698 11.8264 26.3504 14.3342C30.0939 13.78 35.3433 11.6599 35.9141 8.93087C36.3192 6.99719 34.6375 5.75325 33.1107 5.75325C32.4486 5.75325 31.8738 5.99147 31.4926 6.42506C31.3278 6.61045 31.0558 6.64733 30.8493 6.51277C30.6429 6.37821 30.5664 6.11308 30.6677 5.88781C31.6356 3.76874 29.5936 1.52905 27.4275 2.22478Z" stroke="#0E0E0E"/>
<path d="M38.7304 21.6484C38.1169 21.6484 37.5074 21.5906 36.9158 21.4769C36.7371 21.443 36.5921 21.3135 36.5366 21.14C35.6471 18.3781 34.9353 15.1725 36.5673 13.0704C38.2837 10.8606 41.4862 11.2185 42.5593 14.413C44.0047 13.794 45.7846 13.513 46.685 14.8057C47.1228 15.4347 47.2131 16.3288 46.9183 17.1401C46.2522 18.9891 42.9246 21.6484 38.7304 21.6484ZM37.3923 20.548C41.6579 21.2078 45.3726 18.4927 45.9861 16.7992C46.4358 15.5583 45.6605 13.9585 42.459 15.5573C42.323 15.6241 42.1642 15.6261 42.0242 15.5603C41.8862 15.4955 41.787 15.3699 41.7532 15.2194C41.1129 12.3557 38.6738 11.976 37.3496 13.6834C35.9846 15.4427 36.7152 18.2993 37.3923 20.548Z" stroke="#0E0E0E"/>
<path d="M30.6965 25.0462C29.7038 25.0462 24.5328 23.4744 24.8167 19.8482C24.9577 18.0391 27.2419 15.8543 29.6214 18.4847C30.9566 16.5291 33.5962 17.3195 34.0359 19.5821C34.3 20.9377 33.7272 21.9434 33.1336 22.9401C32.527 23.9757 31.8976 25.0462 30.6965 25.0462ZM25.8054 19.926C25.6277 22.2354 28.2643 23.3059 30.3053 23.9797C31.2981 24.3037 31.7309 23.3538 32.5598 21.9623C34.0985 19.4465 32.0019 17.4401 30.6131 18.8395C30.4026 19.0508 30.2825 19.289 30.2835 19.4914C30.2845 19.7097 30.1435 19.902 29.9371 19.9688C29.7326 20.0326 29.5052 19.9589 29.3801 19.7814C27.3163 16.8351 25.8838 18.9292 25.8054 19.926Z" stroke="#0E0E0E"/>
<path d="M45.0609 37.5972L43.6036 36.135C43.5063 36.0373 43.5063 35.8798 43.6036 35.7821C43.6999 35.6844 43.8568 35.6844 43.954 35.7821L45.4113 37.2443C45.5086 37.342 45.5086 37.4995 45.4113 37.5972C45.3131 37.6959 45.1562 37.6929 45.0609 37.5972Z" stroke="#0E0E0E"/>
<path d="M46.1023 36.0343L44.8405 34.7674C44.7432 34.6697 44.7432 34.5123 44.8405 34.4146C44.9378 34.3179 45.0947 34.3159 45.192 34.4146L46.4537 35.6814C46.551 35.7791 46.551 35.9366 46.4537 36.0343C46.3554 36.133 46.1986 36.131 46.1023 36.0343Z" stroke="#0E0E0E"/>
<path d="M47.4901 35.0893C47.3263 35.0893 46.1936 33.8902 46.0774 33.7746C45.9801 33.6769 45.9801 33.5195 46.0774 33.4218C46.1747 33.3241 46.3316 33.3241 46.4289 33.4218L47.6658 34.6637C47.763 34.7614 47.763 34.9189 47.6658 35.0166C47.6171 35.0654 47.5536 35.0893 47.4901 35.0893Z" stroke="#0E0E0E"/>
<path d="M49.2094 35.0565L47.8097 33.6511C47.7124 33.5534 47.7124 33.3959 47.8097 33.2982C47.907 33.2006 48.0638 33.2006 48.1611 33.2982L49.5608 34.7036C49.6581 34.8013 49.6581 34.9588 49.5608 35.0565C49.4645 35.1532 49.3077 35.1542 49.2094 35.0565Z" stroke="#0E0E0E"/>
<path d="M44.099 37.4397C44.0017 37.3421 44.0017 37.1846 44.099 37.0869L45.7062 35.4722C45.9414 35.2379 46.2869 35.5938 46.0576 35.825L44.4504 37.4397C44.3521 37.5374 44.1943 37.5354 44.099 37.4397Z" stroke="#0E0E0E"/>
<path d="M46.2015 35.1413C46.1042 35.0436 46.1042 34.8861 46.2015 34.7884L46.9441 34.0429C47.0413 33.9452 47.1982 33.9452 47.2955 34.0429C47.3928 34.1405 47.3928 34.298 47.2955 34.3957L46.5529 35.1413C46.4566 35.238 46.2988 35.239 46.2015 35.1413Z" stroke="#0E0E0E"/>
<path d="M16.3628 37.6021L14.7785 36.0103C14.6812 35.9126 14.6812 35.7552 14.7785 35.6575C14.8767 35.5598 15.0336 35.5608 15.1299 35.6575L16.7142 37.2493C16.9465 37.4825 16.5941 37.8334 16.3628 37.6021Z" stroke="#0E0E0E"/>
<path d="M17.0686 36.2605L15.8297 35.0166C15.7324 34.9189 15.7324 34.7614 15.8297 34.6637C15.927 34.566 16.0839 34.566 16.1801 34.6637L17.419 35.9076C17.5163 36.0053 17.5163 36.1628 17.419 36.2605C17.3237 36.3572 17.1669 36.3582 17.0686 36.2605Z" stroke="#0E0E0E"/>
<path d="M18.3849 35.3456L17.4379 34.3957C17.3406 34.298 17.3406 34.1405 17.4379 34.0429C17.5352 33.9452 17.692 33.9452 17.7893 34.0429L18.7354 34.9928C18.8327 35.0904 18.8327 35.2479 18.7354 35.3446C18.6391 35.4423 18.4822 35.4433 18.3849 35.3456Z" stroke="#0E0E0E"/>
<path d="M19.1801 34.7156L18.3661 33.8993C18.2688 33.8016 18.2688 33.6441 18.3661 33.5464C18.4624 33.4497 18.6192 33.4477 18.7175 33.5464L19.5315 34.3627C19.6288 34.4604 19.6288 34.6179 19.5315 34.7156C19.4332 34.8143 19.2764 34.8123 19.1801 34.7156Z" stroke="#0E0E0E"/>
<path d="M14.7169 37.3978L16.6656 35.4412C16.8959 35.2099 17.2493 35.5598 17.017 35.794L15.0683 37.7506C14.835 37.9829 14.4866 37.629 14.7169 37.3978Z" stroke="#0E0E0E"/>
<path d="M15.8923 35.2648C15.795 35.1671 15.795 35.0096 15.8923 34.9119L17.1907 33.6082C17.288 33.5105 17.4449 33.5105 17.5421 33.6082C17.6394 33.7059 17.6394 33.8633 17.5421 33.961L16.2437 35.2648C16.1464 35.3614 15.9896 35.3624 15.8923 35.2648Z" stroke="#0E0E0E"/>
<path d="M18.5527 35.0365L19.6387 33.9451C19.735 33.8484 19.8919 33.8464 19.9901 33.9451C20.0874 34.0428 20.0874 34.2003 19.9901 34.2979L18.9031 35.3894C18.6728 35.6206 18.3194 35.2708 18.5527 35.0365Z" stroke="#0E0E0E"/>
<path d="M14.9829 54.2617L12.7484 52.018C12.6511 51.9203 12.6511 51.7629 12.7484 51.6652C12.8466 51.5665 13.0035 51.5685 13.0998 51.6652L15.3344 53.9098C15.4317 54.0075 15.4317 54.165 15.3344 54.2627C15.2381 54.3584 15.0812 54.3604 14.9829 54.2617Z" stroke="#0E0E0E"/>
<path d="M15.2381 52.6521L13.0452 50.4503C12.9479 50.3526 12.9479 50.1951 13.0452 50.0974C13.1425 49.9997 13.2993 49.9997 13.3966 50.0974L15.5895 52.2992C15.6868 52.3969 15.6868 52.5544 15.5895 52.6521C15.4922 52.7488 15.3354 52.7508 15.2381 52.6521Z" stroke="#0E0E0E"/>
<path d="M16.3906 51.3462L14.4578 49.4066C14.3605 49.3089 14.3605 49.1514 14.4578 49.0537C14.5541 48.956 14.7109 48.956 14.8092 49.0537L16.742 50.9934C16.8393 51.0911 16.8393 51.2486 16.742 51.3462C16.6427 51.4449 16.4859 51.4419 16.3906 51.3462Z" stroke="#0E0E0E"/>
<path d="M17.4369 50.0833L15.4247 48.0629C15.3274 47.9653 15.3274 47.8078 15.4247 47.7101C15.522 47.6124 15.6788 47.6124 15.7761 47.7101L17.7883 49.7305C17.8856 49.8282 17.8856 49.9857 17.7883 50.0833C17.691 50.18 17.5342 50.181 17.4369 50.0833Z" stroke="#0E0E0E"/>
<path d="M18.9915 49.4056L17.5789 47.9873C17.4816 47.8896 17.4816 47.7321 17.5789 47.6344C17.6762 47.5367 17.833 47.5367 17.9293 47.6344L19.3419 49.0528C19.4392 49.1505 19.4392 49.3079 19.3419 49.4056C19.2456 49.5033 19.0888 49.5033 18.9915 49.4056Z" stroke="#0E0E0E"/>
<path d="M20.0527 48.9042L18.8426 47.6882C18.7453 47.5905 18.7453 47.433 18.8426 47.3353C18.9409 47.2367 19.0977 47.2387 19.194 47.3353L20.4041 48.5514C20.5014 48.6491 20.5014 48.8065 20.4041 48.9042C20.3078 49.0009 20.151 49.0029 20.0527 48.9042Z" stroke="#0E0E0E"/>
<path d="M13.4909 53.8082C13.3936 53.7105 13.3936 53.553 13.4909 53.4554L15.4992 51.44C15.7275 51.2087 16.0839 51.5576 15.8506 51.7928L13.8423 53.8082C13.746 53.9049 13.5892 53.9069 13.4909 53.8082Z" stroke="#0E0E0E"/>
<path d="M14.0111 50.6744C13.9138 50.5768 13.9138 50.4193 14.0111 50.3216L16.3201 48.0042C16.4184 47.9055 16.5752 47.9075 16.6705 48.0042C16.7678 48.1019 16.7678 48.2593 16.6705 48.357L14.3615 50.6744C14.2662 50.7701 14.1094 50.7731 14.0111 50.6744Z" stroke="#0E0E0E"/>
<path d="M16.6874 50.0774C16.5901 49.9797 16.5901 49.8223 16.6874 49.7256L17.9531 48.4547C18.0504 48.357 18.2073 48.357 18.3045 48.4547C18.4018 48.5524 18.4018 48.7099 18.3045 48.8076L17.0388 50.0784C16.9416 50.1741 16.7847 50.1761 16.6874 50.0774Z" stroke="#0E0E0E"/>
<path d="M18.9915 48.958C18.8942 48.8603 18.8942 48.7029 18.9915 48.6052L19.8472 47.746C19.9445 47.6483 20.1013 47.6483 20.1976 47.746C20.2949 47.8437 20.2949 48.0012 20.1976 48.0988L19.3419 48.958C19.2456 49.0557 19.0888 49.0557 18.9915 48.958Z" stroke="#0E0E0E"/>
<path d="M44.091 54.2677C43.9233 54.2677 41.7741 52.044 41.6549 51.9244C41.5577 51.8267 41.5577 51.6692 41.6549 51.5716C41.7522 51.4739 41.9091 51.4739 42.0054 51.5716L44.2658 53.8411C44.363 53.9388 44.363 54.0963 44.2658 54.194C44.2181 54.2438 44.1556 54.2677 44.091 54.2677Z" stroke="#0E0E0E"/>
<path d="M44.1605 52.355L42.3737 50.5599C42.2764 50.4622 42.2764 50.3047 42.3737 50.207C42.4719 50.1094 42.6288 50.1094 42.7251 50.207L44.512 52.0022C44.6092 52.0999 44.6092 52.2573 44.512 52.355C44.4167 52.4517 44.2588 52.4537 44.1605 52.355Z" stroke="#0E0E0E"/>
<path d="M44.8961 50.8459L43.1738 49.1156C43.0765 49.0179 43.0765 48.8604 43.1738 48.7627C43.2711 48.664 43.4279 48.666 43.5252 48.7627L45.2475 50.4931C45.3448 50.5907 45.3448 50.7482 45.2475 50.8459C45.1512 50.9416 44.9944 50.9446 44.8961 50.8459Z" stroke="#0E0E0E"/>
<path d="M46.3703 49.9169L44.6916 48.2324C44.5943 48.1347 44.5943 47.9772 44.6916 47.8795C44.7889 47.7819 44.9457 47.7819 45.043 47.8795L46.7207 49.564C46.818 49.6617 46.818 49.8192 46.7207 49.9169C46.6244 50.0136 46.4676 50.0146 46.3703 49.9169Z" stroke="#0E0E0E"/>
<path d="M47.4136 48.8774L46.2909 47.7511C46.1936 47.6534 46.1936 47.4959 46.2909 47.3982C46.3872 47.3015 46.544 47.3005 46.6413 47.3982L47.764 48.5245C47.8613 48.6222 47.8613 48.7797 47.764 48.8774C47.6658 48.976 47.5089 48.9741 47.4136 48.8774Z" stroke="#0E0E0E"/>
<path d="M42.9335 54.5737C42.8363 54.476 42.8363 54.3185 42.9335 54.2208L45.5563 51.5874C45.6526 51.4897 45.8094 51.4897 45.9077 51.5874C46.005 51.6851 46.005 51.8426 45.9077 51.9403L43.285 54.5737C43.1887 54.6703 43.0308 54.6713 42.9335 54.5737Z" stroke="#0E0E0E"/>
<path d="M43.2691 51.2745C43.2055 51.2745 43.142 51.2506 43.0934 51.2017C42.9961 51.104 42.9961 50.9466 43.0934 50.8489L45.6992 48.2334C45.7975 48.1347 45.9543 48.1367 46.0506 48.2334C46.1479 48.3311 46.1479 48.4886 46.0506 48.5863L43.4448 51.2017C43.3961 51.2506 43.3316 51.2745 43.2691 51.2745Z" stroke="#0E0E0E"/>
<path d="M46.6105 49.597C46.5132 49.4993 46.5132 49.3418 46.6105 49.2442L47.8891 47.9603C48.1204 47.7291 48.4728 48.079 48.2405 48.3122L46.9619 49.596C46.8656 49.6937 46.7078 49.6947 46.6105 49.597Z" stroke="#0E0E0E"/>
<path d="M28.2147 14.2196L26.3683 12.3657C26.271 12.268 26.271 12.1105 26.3683 12.0128C26.4656 11.9152 26.6224 11.9152 26.7197 12.0128L28.5661 13.8668C28.6634 13.9645 28.6634 14.1219 28.5661 14.2196C28.4688 14.3163 28.312 14.3173 28.2147 14.2196Z" stroke="#0E0E0E"/>
<path d="M29.9916 12.9817L28.8242 11.8095C28.7269 11.7118 28.7269 11.5544 28.8242 11.4567C28.9215 11.359 29.0784 11.359 29.1756 11.4567L30.3431 12.6289C30.4403 12.7265 30.4403 12.884 30.3431 12.9807C30.2458 13.0794 30.0889 13.0804 29.9916 12.9817Z" stroke="#0E0E0E"/>
<path d="M31.8728 12.8342L30.1147 11.0689C30.0175 10.9712 30.0175 10.8138 30.1147 10.7161C30.212 10.6184 30.3689 10.6184 30.4662 10.7161L32.2242 12.4813C32.3215 12.579 32.3215 12.7365 32.2242 12.8342C32.127 12.9308 31.9701 12.9318 31.8728 12.8342Z" stroke="#0E0E0E"/>
<path d="M33.623 10.9532L32.5717 9.89667C32.4744 9.79899 32.4744 9.6415 32.5717 9.54482C32.67 9.44614 32.8268 9.44814 32.9231 9.54482L33.9744 10.6004C34.0717 10.6981 34.0717 10.8555 33.9744 10.9532C33.8781 11.0499 33.7212 11.0519 33.623 10.9532Z" stroke="#0E0E0E"/>
<path d="M34.9909 9.73621L33.6775 8.41852C33.5803 8.32084 33.5803 8.16335 33.6775 8.06667C33.7738 7.96999 33.9307 7.96799 34.029 8.06667L35.3423 9.38436C35.4396 9.48205 35.4396 9.63953 35.3423 9.73721C35.244 9.83489 35.0872 9.8319 34.9909 9.73621Z" stroke="#0E0E0E"/>
<path d="M35.4654 8.99868C35.4019 8.99868 35.3383 8.97476 35.2897 8.92592L34.1689 7.8006C34.0717 7.70292 34.0717 7.54543 34.1689 7.44875C34.2662 7.35107 34.4231 7.35107 34.5204 7.44875L35.6411 8.57407C35.7384 8.67175 35.7384 8.82924 35.6411 8.92692C35.5925 8.97476 35.5289 8.99868 35.4654 8.99868Z" stroke="#0E0E0E"/>
<path d="M26.3057 14.1718L30.9367 9.52199C31.034 9.42431 31.1908 9.42431 31.2881 9.52199C31.3854 9.61967 31.3854 9.77716 31.2881 9.87484L26.6572 14.5246C26.4239 14.7579 26.0754 14.403 26.3057 14.1718Z" stroke="#0E0E0E"/>
<path d="M30.2994 12.9995L33.4324 9.85378C33.5297 9.7561 33.6865 9.7561 33.7838 9.85378C33.8811 9.95146 33.8811 10.1089 33.7838 10.2066L30.6508 13.3523C30.4175 13.5856 30.0681 13.2307 30.2994 12.9995Z" stroke="#0E0E0E"/>
<path d="M33.3698 11.8712C33.2725 11.7736 33.2725 11.6161 33.3698 11.5184L35.385 9.49501C35.4823 9.39733 35.6391 9.39733 35.7364 9.49501C35.8337 9.59269 35.8337 9.75018 35.7364 9.84686L33.7212 11.8703C33.6249 11.9679 33.4681 11.9689 33.3698 11.8712Z" stroke="#0E0E0E"/>
<path d="M34.5899 8.67568C34.5263 8.67568 34.4628 8.65176 34.4141 8.60292C34.3169 8.50524 34.3169 8.34775 34.4141 8.25007L35.0604 7.60219C35.1577 7.50451 35.3145 7.50451 35.4118 7.60219C35.5091 7.69987 35.5091 7.85736 35.4118 7.95504L34.7656 8.60292C34.7169 8.65176 34.6524 8.67568 34.5899 8.67568Z" stroke="#0E0E0E"/>
<path d="M39.8204 21.4838L37.839 19.4943C37.7417 19.3967 37.7417 19.2392 37.839 19.1415C37.9363 19.0438 38.0931 19.0438 38.1894 19.1415L40.1708 21.131C40.2681 21.2287 40.2681 21.3862 40.1708 21.4838C40.0755 21.5805 39.9187 21.5815 39.8204 21.4838Z" stroke="#0E0E0E"/>
<path d="M41.5041 20.7781L39.885 19.1515C39.7877 19.0538 39.7877 18.8963 39.885 18.7986C39.9822 18.6999 40.1391 18.7019 40.2364 18.7986L41.8555 20.4253C41.9528 20.523 41.9528 20.6805 41.8555 20.7781C41.7592 20.8738 41.6023 20.8768 41.5041 20.7781Z" stroke="#0E0E0E"/>
<path d="M42.598 19.9598L41.2479 18.6042C41.1506 18.5065 41.1506 18.349 41.2479 18.2514C41.3452 18.1537 41.5021 18.1537 41.5993 18.2514L42.9494 19.6069C43.0467 19.7046 43.0467 19.8621 42.9494 19.9588C42.8531 20.0565 42.6953 20.0585 42.598 19.9598Z" stroke="#0E0E0E"/>
<path d="M44.0761 18.8434L42.8829 17.6453C42.7856 17.5476 42.7856 17.3902 42.8829 17.2935C42.9802 17.1958 43.137 17.1958 43.2343 17.2935L44.4276 18.4916C44.5248 18.5892 44.5248 18.7467 44.4276 18.8434C44.3313 18.9401 44.1744 18.9421 44.0761 18.8434Z" stroke="#0E0E0E"/>
<path d="M45.2396 17.48L44.1784 16.4145C44.0811 16.3168 44.0811 16.1593 44.1784 16.0626C44.2757 15.965 44.4325 15.965 44.5298 16.0626L45.591 17.1282C45.6883 17.2258 45.6883 17.3833 45.591 17.481C45.4947 17.5767 45.3379 17.5777 45.2396 17.48Z" stroke="#0E0E0E"/>
<path d="M45.3121 16.5589C45.2485 16.5589 45.185 16.535 45.1364 16.4861L44.5199 15.8662C44.4226 15.7685 44.4226 15.611 44.5199 15.5133C44.6182 15.4156 44.775 15.4156 44.8703 15.5133C45.1532 15.7974 45.7479 16.224 45.4868 16.4861C45.4391 16.535 45.3746 16.5589 45.3121 16.5589Z" stroke="#0E0E0E"/>
<path d="M37.0895 20.3147C36.9922 20.217 36.9922 20.0595 37.0895 19.9619L40.0041 17.0354C40.1013 16.9377 40.2582 16.9377 40.3545 17.0354C40.4518 17.1331 40.4518 17.2906 40.3545 17.3883L37.4399 20.3147C37.3446 20.4114 37.1878 20.4124 37.0895 20.3147Z" stroke="#0E0E0E"/>
<path d="M40.0894 20.2469C39.9921 20.1492 39.9921 19.9917 40.0894 19.894L42.5444 17.4291C42.6417 17.3314 42.7985 17.3314 42.8948 17.4291C42.9921 17.5268 42.9921 17.6843 42.8948 17.7819L40.4399 20.2469C40.3436 20.3436 40.1867 20.3446 40.0894 20.2469Z" stroke="#0E0E0E"/>
<path d="M42.7479 18.9362L45.4093 16.2629C45.6397 16.0317 45.9931 16.3816 45.7608 16.6158L43.0993 19.2891C42.866 19.5223 42.5166 19.1685 42.7479 18.9362Z" stroke="#0E0E0E"/>
<path d="M29.3563 23.9797L27.5476 22.1636C27.3173 21.9324 27.6657 21.5775 27.898 21.8108L29.7067 23.6268C29.804 23.7245 29.804 23.882 29.7067 23.9797C29.6114 24.0764 29.4546 24.0774 29.3563 23.9797Z" stroke="#0E0E0E"/>
<path d="M31.0916 23.4635L29.7286 22.0939C29.6313 21.9963 29.6313 21.8388 29.7286 21.7421C29.8259 21.6434 29.9827 21.6454 30.079 21.7421L31.442 23.1116C31.5393 23.2093 31.5393 23.3668 31.442 23.4645C31.3467 23.5601 31.1898 23.5621 31.0916 23.4635Z" stroke="#0E0E0E"/>
<path d="M32.3285 22.1725L31.3636 21.2037C31.2663 21.106 31.2663 20.9485 31.3636 20.8508C31.4609 20.7532 31.6177 20.7532 31.715 20.8508L32.6799 21.8197C32.7772 21.9174 32.7772 22.0748 32.6799 22.1725C32.5836 22.2692 32.4268 22.2702 32.3285 22.1725Z" stroke="#0E0E0E"/>
<path d="M32.9181 20.506L32.1826 19.7674C32.0853 19.6697 32.0853 19.5122 32.1826 19.4146C32.2798 19.3169 32.4367 19.3169 32.534 19.4146L33.2696 20.1532C33.3669 20.2508 33.3669 20.4083 33.2696 20.505C33.1733 20.6027 33.0154 20.6047 32.9181 20.506Z" stroke="#0E0E0E"/>
<path d="M27.6846 23.1793L30.4523 20.4004C30.5496 20.3027 30.7064 20.3027 30.8037 20.4004C30.901 20.4981 30.901 20.6556 30.8037 20.7533L28.035 23.5312C27.8027 23.7654 27.4533 23.4106 27.6846 23.1793Z" stroke="#0E0E0E"/>
<path d="M30.4493 23.5361C30.2299 23.5361 30.1167 23.268 30.2736 23.1105L31.8113 21.5665C31.9086 21.4689 32.0654 21.4689 32.1627 21.5665C32.26 21.6642 32.26 21.8217 32.1627 21.9194C32.0446 22.038 30.6151 23.5361 30.4493 23.5361Z" stroke="#0E0E0E"/>
<path d="M32.0168 20.798C31.9522 20.798 31.8897 20.7741 31.8411 20.7253C31.7438 20.6276 31.7438 20.4701 31.8411 20.3724L32.8308 19.3797C32.9291 19.281 33.0859 19.282 33.1822 19.3797C33.2795 19.4773 33.2795 19.6348 33.1822 19.7325L32.1925 20.7253C32.1438 20.7741 32.0803 20.798 32.0168 20.798Z" stroke="#0E0E0E"/>
<path d="M27.6419 63.0749L25.0341 60.4565C24.9368 60.3588 24.9368 60.2013 25.0341 60.1037C25.1314 60.006 25.2882 60.006 25.3845 60.1037L27.9923 62.7221C28.0896 62.8198 28.0896 62.9773 27.9923 63.0749C27.8961 63.1716 27.7392 63.1736 27.6419 63.0749Z" stroke="#0E0E0E"/>
<path d="M28.1333 61.8619L26.3077 60.0289C26.2104 59.9312 26.2104 59.7737 26.3077 59.676C26.405 59.5784 26.5619 59.5784 26.6591 59.676L28.4847 61.5091C28.582 61.6067 28.582 61.7642 28.4847 61.8619C28.3874 61.9596 28.2306 61.9606 28.1333 61.8619Z" stroke="#0E0E0E"/>
<path d="M28.7885 60.2452L27.6886 59.1408C27.5913 59.0431 27.5913 58.8857 27.6886 58.788C27.7859 58.6903 27.9427 58.6903 28.04 58.788L29.1399 59.8924C29.2372 59.9901 29.2372 60.1475 29.1399 60.2452C29.0436 60.3419 28.8858 60.3439 28.7885 60.2452Z" stroke="#0E0E0E"/>
<path d="M29.1856 59.0092L28.1839 58.0035C28.0866 57.9058 28.0866 57.7483 28.1839 57.6507C28.2812 57.553 28.4381 57.553 28.5353 57.6507L29.537 58.6564C29.6343 58.7541 29.6343 58.9115 29.537 59.0092C29.4407 59.1059 29.2838 59.1069 29.1856 59.0092Z" stroke="#0E0E0E"/>
<path d="M25.9364 63.6032L23.688 61.3446C23.5907 61.2469 23.5907 61.0894 23.688 60.9917C23.7862 60.893 23.9431 60.895 24.0394 60.9917L26.2879 63.2503C26.3851 63.348 26.3851 63.5055 26.2879 63.6032C26.1916 63.6989 26.0347 63.7019 25.9364 63.6032Z" stroke="#0E0E0E"/>
<path d="M24.0682 63.4338L22.4838 61.843C22.3866 61.7453 22.3866 61.5878 22.4838 61.4901C22.5811 61.3924 22.738 61.3924 22.8353 61.4901L24.4196 63.0809C24.5169 63.1786 24.5169 63.3361 24.4196 63.4338C24.3233 63.5305 24.1655 63.5315 24.0682 63.4338Z" stroke="#0E0E0E"/>
<path d="M21.9845 63.8992L20.5024 62.4111C20.4051 62.3134 20.4051 62.1559 20.5024 62.0582C20.5997 61.9606 20.7565 61.9606 20.8538 62.0582L22.3359 63.5464C22.5672 63.7806 22.2148 64.1315 21.9845 63.8992Z" stroke="#0E0E0E"/>
<path d="M20.4934 63.7567C20.4309 63.7567 20.3664 63.7328 20.3177 63.6839L19.0858 62.448C18.9885 62.3503 18.9885 62.1928 19.0858 62.0951C19.1821 61.9984 19.3389 61.9964 19.4372 62.0951L20.6692 63.3311C20.7664 63.4288 20.7664 63.5862 20.6692 63.6839C20.6205 63.7318 20.557 63.7567 20.4934 63.7567Z" stroke="#0E0E0E"/>
<path d="M18.102 63.8773L16.8552 62.6244C16.7579 62.5267 16.7579 62.3692 16.8552 62.2715C16.9535 62.1728 17.1103 62.1748 17.2066 62.2715L18.4534 63.5244C18.5507 63.6221 18.5507 63.7796 18.4534 63.8763C18.3581 63.9729 18.2003 63.9759 18.102 63.8773Z" stroke="#0E0E0E"/>
<path d="M16.4154 64.0667L15.1199 62.766C15.0227 62.6683 15.0227 62.5108 15.1199 62.4131C15.2172 62.3154 15.3741 62.3154 15.4714 62.4131L16.7668 63.7139C16.8641 63.8115 16.8641 63.969 16.7668 64.0667C16.6705 64.1634 16.5127 64.1654 16.4154 64.0667Z" stroke="#0E0E0E"/>
<path d="M14.2136 64.0239L13.0323 62.8377C12.935 62.74 12.935 62.5826 13.0323 62.4849C13.1296 62.3872 13.2864 62.3872 13.3837 62.4849L14.565 63.672C14.6623 63.7697 14.6623 63.9272 14.565 64.0239C14.4687 64.1215 14.3119 64.1225 14.2136 64.0239Z" stroke="#0E0E0E"/>
<path d="M12.4248 64.2222C12.261 64.2222 11.0598 62.9553 10.9436 62.8377C10.8464 62.74 10.8464 62.5826 10.9436 62.4849C11.0409 62.3872 11.1978 62.3872 11.2951 62.4849L12.6005 63.7966C12.6977 63.8943 12.6977 64.0518 12.6005 64.1484C12.5518 64.1973 12.4883 64.2222 12.4248 64.2222Z" stroke="#0E0E0E"/>
<path d="M10.2021 63.7657L9.27886 62.8377C9.18158 62.74 9.18158 62.5826 9.27886 62.4849C9.37615 62.3862 9.533 62.3882 9.62929 62.4849L10.5525 63.4129C10.6498 63.5105 10.6498 63.668 10.5525 63.7657C10.4582 63.8614 10.3004 63.8644 10.2021 63.7657Z" stroke="#0E0E0E"/>
<path d="M9.8457 64.0817C9.74841 63.984 9.74841 63.8265 9.8457 63.7288L11.9135 61.6526C12.0108 61.5549 12.1676 61.5549 12.2649 61.6526C12.3622 61.7503 12.3622 61.9078 12.2649 62.0055L10.1971 64.0817C10.0998 64.1784 9.94298 64.1793 9.8457 64.0817Z" stroke="#0E0E0E"/>
<path d="M11.7577 64.0109C11.6604 63.9132 11.6604 63.7557 11.7577 63.658L13.7361 61.6715C13.8334 61.5738 13.9902 61.5738 14.0875 61.6715C14.1848 61.7692 14.1848 61.9267 14.0875 62.0244L12.1091 64.0109C12.0118 64.1076 11.8549 64.1086 11.7577 64.0109Z" stroke="#0E0E0E"/>
<path d="M13.4214 63.9432L15.5001 61.856C15.5974 61.7583 15.7543 61.7583 15.8516 61.856C15.9488 61.9537 15.9488 62.1111 15.8516 62.2088L13.7728 64.296C13.5405 64.5282 13.1891 64.1764 13.4214 63.9432Z" stroke="#0E0E0E"/>
<path d="M15.3324 64.3667C15.2351 64.269 15.2351 64.1115 15.3324 64.0138L17.6523 61.6845C17.7496 61.5868 17.9065 61.5868 18.0037 61.6845C18.101 61.7821 18.101 61.9396 18.0037 62.0373L15.6838 64.3667C15.5875 64.4634 15.4307 64.4644 15.3324 64.3667Z" stroke="#0E0E0E"/>
<path d="M17.8469 63.8006L19.9167 61.7234C20.015 61.6247 20.1718 61.6267 20.2681 61.7234C20.3654 61.8211 20.3654 61.9786 20.2681 62.0763L18.1983 64.1535C17.965 64.3867 17.6156 64.0319 17.8469 63.8006Z" stroke="#0E0E0E"/>
<path d="M19.5464 64.4733C19.4491 64.3756 19.4491 64.2181 19.5464 64.1205L22.6665 60.9877C22.7638 60.89 22.9206 60.89 23.0179 60.9877C23.1152 61.0854 23.1152 61.2429 23.0179 61.3405L19.8978 64.4733C19.8005 64.57 19.6437 64.571 19.5464 64.4733Z" stroke="#0E0E0E"/>
<path d="M22.6258 63.7298L26.5112 59.8285C26.7415 59.5973 27.0949 59.9471 26.8626 60.1813L22.9772 64.0826C22.7439 64.3148 22.3955 63.961 22.6258 63.7298Z" stroke="#0E0E0E"/>
<path d="M24.8564 63.7627C24.7591 63.665 24.7591 63.5075 24.8564 63.4108L27.501 60.7555C27.5982 60.6578 27.7551 60.6578 27.8524 60.7555C27.9497 60.8532 27.9497 61.0107 27.8524 61.1084L25.2078 63.7637C25.1115 63.8594 24.9537 63.8604 24.8564 63.7627Z" stroke="#0E0E0E"/>
<path d="M27.3342 59.994C27.2369 59.8963 27.2369 59.7389 27.3342 59.6412L28.9999 57.9686C29.0972 57.871 29.2541 57.871 29.3503 57.9686C29.4476 58.0663 29.4476 58.2238 29.3503 58.3215L27.6846 59.994C27.5893 60.0917 27.4314 60.0927 27.3342 59.994Z" stroke="#0E0E0E"/>
<path d="M56.0313 63.2584L53.7143 60.931C53.617 60.8333 53.617 60.6758 53.7143 60.5781C53.8116 60.4795 53.9684 60.4815 54.0657 60.5781L56.3827 62.9055C56.48 63.0032 56.48 63.1607 56.3827 63.2584C56.2874 63.3541 56.1296 63.3571 56.0313 63.2584Z" stroke="#0E0E0E"/>
<path d="M56.9485 62.3503L54.6514 60.0439C54.4211 59.8126 54.7696 59.4578 55.0028 59.691L57.3 61.9985C57.3972 62.0962 57.3972 62.2536 57.3 62.3503C57.2037 62.447 57.0468 62.448 56.9485 62.3503Z" stroke="#0E0E0E"/>
<path d="M57.6534 60.6559L56.2636 59.2605C56.1663 59.1628 56.1663 59.0053 56.2636 58.9076C56.3609 58.8099 56.5177 58.8099 56.615 58.9076L58.0048 60.303C58.1021 60.4007 58.1021 60.5582 58.0048 60.6559C57.9085 60.7526 57.7506 60.7536 57.6534 60.6559Z" stroke="#0E0E0E"/>
<path d="M58.1696 58.9803L57.0955 57.9018C56.9982 57.8041 56.9982 57.6466 57.0955 57.549C57.1928 57.4513 57.3496 57.4513 57.4469 57.549L58.521 58.6274C58.6183 58.7251 58.6183 58.8826 58.521 58.9803C58.4237 59.077 58.2669 59.078 58.1696 58.9803Z" stroke="#0E0E0E"/>
<path d="M53.8612 63.4806L52.0505 61.6626C51.9533 61.5649 51.9533 61.4074 52.0505 61.3097C52.1478 61.212 52.3047 61.212 52.402 61.3097L54.2127 63.1278C54.3099 63.2255 54.3099 63.3829 54.2127 63.4806C54.1154 63.5773 53.9585 63.5783 53.8612 63.4806Z" stroke="#0E0E0E"/>
<path d="M51.2564 63.6331L49.9172 62.2885C49.8199 62.1909 49.8199 62.0334 49.9172 61.9357C50.0145 61.838 50.1713 61.838 50.2686 61.9357L51.6078 63.2803C51.7051 63.378 51.7051 63.5355 51.6078 63.6331C51.5105 63.7298 51.3537 63.7308 51.2564 63.6331Z" stroke="#0E0E0E"/>
<path d="M49.5182 63.7158L48.2018 62.3931C48.1045 62.2955 48.1045 62.138 48.2018 62.0403C48.3001 61.9426 48.457 61.9426 48.5523 62.0403L49.8686 63.363C49.9659 63.4607 49.9659 63.6182 49.8686 63.7158C49.7733 63.8115 49.6164 63.8145 49.5182 63.7158Z" stroke="#0E0E0E"/>
<path d="M47.0612 63.8085L45.9126 62.6552C45.8154 62.5576 45.8154 62.4001 45.9126 62.3024C46.0099 62.2047 46.1668 62.2047 46.2641 62.3024L47.4126 63.4556C47.5099 63.5533 47.5099 63.7108 47.4126 63.8085C47.3163 63.9052 47.1595 63.9061 47.0612 63.8085Z" stroke="#0E0E0E"/>
<path d="M45.1344 63.8055L44.3531 63.0201C44.2558 62.9224 44.2558 62.7649 44.3531 62.6673C44.4514 62.5686 44.6082 62.5706 44.7045 62.6673L45.4858 63.4527C45.5831 63.5504 45.5831 63.7079 45.4858 63.8055C45.3895 63.9012 45.2326 63.9042 45.1344 63.8055Z" stroke="#0E0E0E"/>
<path d="M43.6701 64.0069L42.8442 63.1766C42.7469 63.0789 42.7469 62.9214 42.8442 62.8237C42.9425 62.7261 43.0993 62.7261 43.1946 62.8237L44.0206 63.654C44.1178 63.7517 44.1178 63.9092 44.0206 64.0059C43.9253 64.1026 43.7684 64.1056 43.6701 64.0069Z" stroke="#0E0E0E"/>
<path d="M41.4157 64.2491L40.1927 63.0201C40.0954 62.9224 40.0954 62.7649 40.1927 62.6673C40.291 62.5686 40.4478 62.5706 40.5441 62.6673L41.7671 63.8962C41.8644 63.9939 41.8644 64.1514 41.7671 64.2491C41.6708 64.3448 41.514 64.3478 41.4157 64.2491Z" stroke="#0E0E0E"/>
<path d="M39.8879 63.8135C39.8234 63.8135 39.7609 63.7896 39.7122 63.7408L38.5785 62.6025C38.4813 62.5048 38.4813 62.3473 38.5785 62.2497C38.6758 62.152 38.8327 62.152 38.93 62.2497L40.0636 63.3879C40.1609 63.4856 40.1609 63.6431 40.0636 63.7408C40.015 63.7886 39.9515 63.8135 39.8879 63.8135Z" stroke="#0E0E0E"/>
<path d="M39.0997 64.3258C39.0024 64.2281 39.0024 64.0706 39.0997 63.9729L41.2142 61.8499C41.3115 61.7522 41.4683 61.7522 41.5656 61.8499C41.6629 61.9476 41.6629 62.105 41.5656 62.2027L39.4511 64.3258C39.3538 64.4225 39.197 64.4235 39.0997 64.3258Z" stroke="#0E0E0E"/>
<path d="M40.972 63.9211L42.8621 62.0233C42.9593 61.9257 43.1162 61.9257 43.2135 62.0233C43.3108 62.121 43.3108 62.2785 43.2135 62.3762L41.3234 64.274C41.0901 64.5072 40.7406 64.1524 40.972 63.9211Z" stroke="#0E0E0E"/>
<path d="M43.0001 64.3777C42.9028 64.28 42.9028 64.1225 43.0001 64.0248L44.9894 62.0274C45.0867 61.9297 45.2436 61.9297 45.3409 62.0274C45.4381 62.125 45.4381 62.2825 45.3409 62.3802L43.3515 64.3777C43.2552 64.4744 43.0983 64.4754 43.0001 64.3777Z" stroke="#0E0E0E"/>
<path d="M45.3408 63.5553L47.228 61.6615C47.3253 61.5638 47.4821 61.5638 47.5794 61.6615C47.6767 61.7592 47.6767 61.9167 47.5794 62.0144L45.6923 63.9082C45.459 64.1414 45.1095 63.7866 45.3408 63.5553Z" stroke="#0E0E0E"/>
<path d="M47.63 63.4506L50.1495 60.9209C50.2468 60.8232 50.4036 60.8232 50.5009 60.9209C50.5982 61.0186 50.5982 61.1761 50.5009 61.2738L47.9814 63.8035C47.7482 64.0367 47.3987 63.6829 47.63 63.4506Z" stroke="#0E0E0E"/>
<path d="M49.5013 63.8036C49.404 63.7059 49.404 63.5485 49.5013 63.4508L51.2762 61.6686C51.3735 61.5709 51.5304 61.5709 51.6276 61.6686C51.7249 61.7663 51.7249 61.9238 51.6276 62.0214L49.8527 63.8036C49.7564 63.9003 49.5996 63.9013 49.5013 63.8036Z" stroke="#0E0E0E"/>
<path d="M51.8431 63.3471L54.4519 60.7277C54.5492 60.63 54.706 60.63 54.8033 60.7277C54.9006 60.8254 54.9006 60.9828 54.8033 61.0805L52.1945 63.7C51.9612 63.9332 51.6118 63.5784 51.8431 63.3471Z" stroke="#0E0E0E"/>
<path d="M54.7547 62.7201L56.7609 60.7057C56.9922 60.4745 57.3446 60.8243 57.1123 61.0585L55.1061 63.073C54.8748 63.3042 54.5214 62.9544 54.7547 62.7201Z" stroke="#0E0E0E"/>
<path d="M56.0035 59.5734C55.9062 59.4757 55.9062 59.3183 56.0035 59.2206L57.7556 57.4613C57.8529 57.3636 58.0097 57.3636 58.107 57.4613C58.2043 57.559 58.2043 57.7165 58.107 57.8142L56.3549 59.5734C56.2586 59.6701 56.1008 59.6711 56.0035 59.5734Z" stroke="#0E0E0E"/>
<path d="M37.9432 30.1505L36.0124 28.2129C35.9151 28.1152 35.9151 27.9577 36.0124 27.86C36.1097 27.7623 36.2665 27.7623 36.3638 27.86L38.2946 29.7977C38.3919 29.8954 38.3919 30.0528 38.2946 30.1505C38.1973 30.2472 38.0405 30.2482 37.9432 30.1505Z" stroke="#0E0E0E"/>
<path d="M38.6004 28.7262L37.0498 27.1693C36.9525 27.0716 36.9525 26.9141 37.0498 26.8164C37.1471 26.7187 37.3039 26.7187 37.4012 26.8164L38.9518 28.3733C39.0491 28.471 39.0491 28.6285 38.9518 28.7262C38.8545 28.8229 38.6977 28.8249 38.6004 28.7262Z" stroke="#0E0E0E"/>
<path d="M39.608 27.7364L38.2132 26.336C38.1159 26.2383 38.1159 26.0809 38.2132 25.9832C38.3105 25.8855 38.4674 25.8855 38.5646 25.9832L39.9594 27.3836C40.0567 27.4813 40.0567 27.6388 39.9594 27.7364C39.8621 27.8331 39.7053 27.8341 39.608 27.7364Z" stroke="#0E0E0E"/>
<path d="M41.1407 26.8582L39.873 25.5854C39.7758 25.4877 39.7758 25.3302 39.873 25.2326C39.9703 25.1349 40.1272 25.1349 40.2245 25.2326L41.4921 26.5054C41.5894 26.6031 41.5894 26.7606 41.4921 26.8582C41.3958 26.9549 41.239 26.9569 41.1407 26.8582Z" stroke="#0E0E0E"/>
<path d="M42.7846 26.3829L41.7423 25.3353C41.645 25.2376 41.645 25.0801 41.7423 24.9824C41.8406 24.8838 41.9974 24.8848 42.0927 24.9824L43.1351 26.03C43.2323 26.1277 43.2323 26.2852 43.1351 26.3819C43.0398 26.4786 42.8829 26.4815 42.7846 26.3829Z" stroke="#0E0E0E"/>
<path d="M38.4068 33.1188L35.929 30.6309C35.8317 30.5333 35.8317 30.3758 35.929 30.2781C36.0263 30.1804 36.1831 30.1804 36.2804 30.2781L38.7582 32.766C38.8555 32.8636 38.8555 33.0211 38.7582 33.1188C38.6609 33.2155 38.5041 33.2165 38.4068 33.1188Z" stroke="#0E0E0E"/>
<path d="M38.381 35.3435L36.5931 33.5484C36.4959 33.4507 36.4959 33.2932 36.5931 33.1966C36.6904 33.0989 36.8473 33.0989 36.9446 33.1966L38.7324 34.9917C38.8297 35.0894 38.8297 35.2469 38.7324 35.3445C38.6361 35.4402 38.4783 35.4412 38.381 35.3435Z" stroke="#0E0E0E"/>
<path d="M37.9343 37.6879L36.8006 36.5506C36.7033 36.4529 36.7033 36.2955 36.8006 36.1978C36.8969 36.1001 37.0537 36.0991 37.152 36.1978L38.2857 37.3351C38.383 37.4327 38.383 37.5902 38.2857 37.6879C38.1874 37.7866 38.0296 37.7836 37.9343 37.6879Z" stroke="#0E0E0E"/>
<path d="M37.558 39.2279L36.7589 38.4255C36.6616 38.3278 36.6616 38.1703 36.7589 38.0727C36.8562 37.975 37.013 37.975 37.1103 38.0727L37.9095 38.875C38.0067 38.9727 38.0067 39.1302 37.9095 39.2269C37.8132 39.3256 37.6553 39.3266 37.558 39.2279Z" stroke="#0E0E0E"/>
<path d="M36.4681 38.4265C36.3708 38.3288 36.3708 38.1713 36.4681 38.0736L38.4971 36.0363C38.5944 35.9386 38.7513 35.9386 38.8486 36.0363C38.9458 36.134 38.9458 36.2914 38.8486 36.3891L36.8195 38.4265C36.7232 38.5231 36.5663 38.5241 36.4681 38.4265Z" stroke="#0E0E0E"/>
<path d="M36.478 35.7472C36.4145 35.7472 36.3509 35.7233 36.3023 35.6744C36.205 35.5768 36.205 35.4193 36.3023 35.3216L37.8241 33.7936C37.9214 33.6959 38.0782 33.6959 38.1755 33.7936C38.2728 33.8913 38.2728 34.0488 38.1755 34.1464L36.6537 35.6744C36.605 35.7233 36.5425 35.7472 36.478 35.7472Z" stroke="#0E0E0E"/>
<path d="M36.7589 33.7149C36.6616 33.6172 36.6616 33.4597 36.7589 33.362L38.4674 31.6466C38.5646 31.5489 38.7215 31.5489 38.8188 31.6466C38.9161 31.7443 38.9161 31.9018 38.8188 31.9995L37.1103 33.7149C37.014 33.8116 36.8572 33.8135 36.7589 33.7149Z" stroke="#0E0E0E"/>
<path d="M36.7172 31.1721C36.6199 31.0745 36.6199 30.917 36.7172 30.8193L38.5577 28.9713C38.655 28.8737 38.8118 28.8737 38.9091 28.9713C39.0064 29.069 39.0064 29.2265 38.9091 29.3242L37.0686 31.1721C36.9723 31.2698 36.8155 31.2708 36.7172 31.1721Z" stroke="#0E0E0E"/>
<path d="M37.0498 28.6295C36.9525 28.5318 36.9525 28.3743 37.0498 28.2766L38.9478 26.3709C39.0451 26.2732 39.202 26.2732 39.2992 26.3709C39.3965 26.4685 39.3965 26.626 39.2992 26.7237L37.4012 28.6295C37.3049 28.7262 37.1481 28.7272 37.0498 28.6295Z" stroke="#0E0E0E"/>
<path d="M39.9981 26.8593L41.3681 25.4828C41.4643 25.3851 41.6212 25.3841 41.7185 25.4828C41.8158 25.5805 41.8158 25.738 41.7185 25.8357L40.3485 27.2122C40.1182 27.4434 39.7658 27.0936 39.9981 26.8593Z" stroke="#0E0E0E"/>
<path d="M9.32553 28.8468L7.52972 27.0427C7.43244 26.945 7.43244 26.7875 7.52972 26.6898C7.628 26.5912 7.78485 26.5932 7.88114 26.6898L9.67694 28.4939C9.77423 28.5916 9.77423 28.7491 9.67694 28.8468C9.58065 28.9435 9.42381 28.9455 9.32553 28.8468Z" stroke="#0E0E0E"/>
<path d="M9.77819 28.0026L8.20873 26.4267C8.11144 26.329 8.11144 26.1716 8.20873 26.0739C8.30601 25.9762 8.46286 25.9762 8.56014 26.0739L10.1296 27.6497C10.2269 27.7474 10.2269 27.9049 10.1296 28.0016C10.0323 28.0993 9.87547 28.1002 9.77819 28.0026Z" stroke="#0E0E0E"/>
<path d="M11.3794 27.1743L9.79408 25.5825C9.69679 25.4848 9.69679 25.3273 9.79408 25.2306C9.89136 25.1329 10.0482 25.1329 10.1455 25.2306L11.7308 26.8224C11.8281 26.9201 11.8281 27.0776 11.7308 27.1753C11.6336 27.2709 11.4767 27.2719 11.3794 27.1743Z" stroke="#0E0E0E"/>
<path d="M12.5568 26.8932L10.8622 25.1917C10.7649 25.0941 10.7649 24.9366 10.8622 24.8389C10.9595 24.7412 11.1164 24.7412 11.2136 24.8389L12.9082 26.5403C13.0055 26.638 13.0055 26.7955 12.9082 26.8932C12.8109 26.9909 12.6541 26.9919 12.5568 26.8932Z" stroke="#0E0E0E"/>
<path d="M14.2573 26.2643L12.8993 24.9007C12.802 24.803 12.802 24.6456 12.8993 24.5479C12.9965 24.4502 13.1534 24.4502 13.2497 24.5479L14.6077 25.9114C14.705 26.0091 14.705 26.1666 14.6077 26.2643C14.5124 26.3609 14.3556 26.3619 14.2573 26.2643Z" stroke="#0E0E0E"/>
<path d="M15.8615 26.2812L14.5501 24.9655C14.4528 24.8679 14.4528 24.7104 14.5501 24.6127C14.6464 24.516 14.8033 24.514 14.9015 24.6127L16.2129 25.9284C16.3102 26.0261 16.3102 26.1836 16.2129 26.2812C16.1136 26.3799 15.9568 26.3779 15.8615 26.2812Z" stroke="#0E0E0E"/>
<path d="M17.5024 25.7858L16.5564 24.8349C16.4591 24.7372 16.4591 24.5797 16.5564 24.4831C16.6547 24.3844 16.8115 24.3854 16.9078 24.4831L17.8538 25.434C17.9511 25.5316 17.9511 25.6891 17.8538 25.7868C17.7576 25.8825 17.6007 25.8845 17.5024 25.7858Z" stroke="#0E0E0E"/>
<path d="M18.7721 25.7937L17.8489 24.8668C17.7516 24.7691 17.7516 24.6116 17.8489 24.5149C17.9462 24.4172 18.103 24.4172 18.2003 24.5149L19.1235 25.4419C19.2208 25.5396 19.2208 25.697 19.1235 25.7947C19.0272 25.8904 18.8694 25.8914 18.7721 25.7937Z" stroke="#0E0E0E"/>
<path d="M19.4025 24.9974C19.3052 24.8997 19.3052 24.7422 19.4025 24.6445C19.4997 24.5469 19.6566 24.5469 19.7539 24.6445L20.3187 25.2117C20.416 25.3094 20.416 25.4669 20.3187 25.5645C20.0745 25.8097 19.6556 25.2516 19.4025 24.9974Z" stroke="#0E0E0E"/>
<path d="M9.19647 30.9858C9.13293 30.9858 9.0694 30.9619 9.02076 30.913L7.07605 28.9604C6.97876 28.8627 6.97876 28.7052 7.07605 28.6076C7.17333 28.5099 7.33018 28.5099 7.42647 28.6076L9.37118 30.5602C9.46847 30.6579 9.46847 30.8153 9.37118 30.912C9.32353 30.9619 9.26 30.9858 9.19647 30.9858Z" stroke="#0E0E0E"/>
<path d="M8.36657 32.9464C8.30205 32.9464 8.2395 32.9224 8.19086 32.8736L6.88248 31.5599C6.78519 31.4622 6.78519 31.3047 6.88248 31.207C6.97976 31.1094 7.13661 31.1094 7.23389 31.207L8.54228 32.5208C8.63956 32.6184 8.63956 32.7759 8.54228 32.8736C8.49364 32.9214 8.4301 32.9464 8.36657 32.9464Z" stroke="#0E0E0E"/>
<path d="M8.63261 35.5848C8.56908 35.5848 8.50555 35.5609 8.4569 35.5121L7.30239 34.3529C7.2051 34.2552 7.2051 34.0977 7.30239 34C7.39967 33.9023 7.55652 33.9023 7.65281 34L8.80733 35.1592C8.90461 35.2569 8.90461 35.4144 8.80733 35.5121C8.75968 35.5609 8.69714 35.5848 8.63261 35.5848Z" stroke="#0E0E0E"/>
<path d="M8.78946 37.3331C8.72593 37.3331 8.66239 37.3092 8.61375 37.2603L7.91787 36.5616C7.82058 36.4639 7.82058 36.3064 7.91787 36.2088C8.01515 36.1111 8.172 36.1111 8.26829 36.2088L8.96418 36.9075C9.06146 37.0051 9.06146 37.1626 8.96418 37.2603C8.91653 37.3092 8.85299 37.3331 8.78946 37.3331Z" stroke="#0E0E0E"/>
<path d="M8.32885 38.8522C8.26532 38.8522 8.20179 38.8282 8.15314 38.7794L7.59326 38.2182C7.49597 38.1206 7.49597 37.9631 7.59326 37.8654C7.68955 37.7677 7.8464 37.7667 7.94468 37.8654L8.50357 38.4266C8.60085 38.5242 8.60085 38.6817 8.50357 38.7794C8.45592 38.8272 8.39239 38.8522 8.32885 38.8522Z" stroke="#0E0E0E"/>
<path d="M8.1035 40.8675C8.04096 40.8675 7.97643 40.8436 7.92779 40.7948L7.4642 40.3303C7.36691 40.2326 7.36691 40.0751 7.4642 39.9774C7.56049 39.8808 7.71734 39.8788 7.81462 39.9774L8.27822 40.4419C8.3755 40.5396 8.3755 40.6971 8.27822 40.7948C8.23057 40.8436 8.16803 40.8675 8.1035 40.8675Z" stroke="#0E0E0E"/>
<path d="M7.51086 42.0267C7.40961 42.0267 7.32026 41.9659 7.28055 41.8732C7.24283 41.7795 7.26368 41.6729 7.33515 41.6021L9.16868 39.7621C9.26696 39.6634 9.4238 39.6654 9.5201 39.7621C9.61738 39.8598 9.61738 40.0173 9.5201 40.115L8.10251 41.5353C8.21171 41.5612 8.29212 41.6599 8.29212 41.7775C8.29311 42.1084 7.84243 42.0267 7.51086 42.0267Z" stroke="#0E0E0E"/>
<path d="M7.44633 38.584C7.38379 38.584 7.31926 38.5591 7.27062 38.5112C7.17334 38.4136 7.17334 38.2561 7.27062 38.1584L8.96517 36.456C9.06146 36.3593 9.21831 36.3573 9.31659 36.456C9.41387 36.5536 9.41387 36.7111 9.31659 36.8078L7.62204 38.5102C7.5734 38.5601 7.51086 38.584 7.44633 38.584Z" stroke="#0E0E0E"/>
<path d="M7.75605 35.9446C7.65877 35.8469 7.65877 35.6894 7.75605 35.5918L9.43571 33.9063C9.53399 33.8076 9.69083 33.8096 9.78613 33.9063C9.88342 34.004 9.88342 34.1614 9.78613 34.2591L8.10648 35.9446C8.01118 36.0403 7.85334 36.0423 7.75605 35.9446Z" stroke="#0E0E0E"/>
<path d="M7.22 33.1916C7.15646 33.1916 7.09293 33.1677 7.04429 33.1189C6.947 33.0212 6.947 32.8637 7.04429 32.766L8.67729 31.1254C8.77457 31.0277 8.93142 31.0277 9.0287 31.1254C9.12599 31.2231 9.12599 31.3806 9.0287 31.4782L7.39471 33.1189C7.34607 33.1667 7.28353 33.1916 7.22 33.1916Z" stroke="#0E0E0E"/>
<path d="M7.70543 30.6259C7.6419 30.6259 7.57837 30.602 7.52972 30.5532C7.43244 30.4555 7.43244 30.298 7.52972 30.2003L8.82024 28.9046C8.91752 28.8069 9.07437 28.8069 9.17067 28.9046C9.26795 29.0022 9.26795 29.1597 9.17067 29.2574L7.88015 30.5532C7.8325 30.601 7.76897 30.6259 7.70543 30.6259Z" stroke="#0E0E0E"/>
<path d="M8.04791 28.473C7.95063 28.3753 7.95063 28.2178 8.04791 28.1201L9.66304 26.4984C9.76033 26.4008 9.91717 26.4008 10.0145 26.4984C10.1117 26.5961 10.1117 26.7536 10.0145 26.8513L8.39933 28.473C8.30205 28.5707 8.1452 28.5717 8.04791 28.473Z" stroke="#0E0E0E"/>
<path d="M11.3794 26.946C11.2821 26.8483 11.2821 26.6908 11.3794 26.5931L12.9876 24.9794C13.0859 24.8807 13.2427 24.8827 13.339 24.9794C13.4363 25.0771 13.4363 25.2346 13.339 25.3322L11.7308 26.946C11.6346 27.0427 11.4777 27.0446 11.3794 26.946Z" stroke="#0E0E0E"/>
<path d="M13.2884 26.1346C13.1911 26.037 13.1911 25.8795 13.2884 25.7818L14.5571 24.508C14.6544 24.4103 14.8112 24.4103 14.9085 24.508C15.0058 24.6056 15.0058 24.7631 14.9085 24.8608L13.6398 26.1346C13.5425 26.2313 13.3857 26.2323 13.2884 26.1346Z" stroke="#0E0E0E"/>
<path d="M15.7146 25.9722C15.6173 25.8745 15.6173 25.717 15.7146 25.6194L16.6437 24.6874C16.741 24.5897 16.8979 24.5897 16.9952 24.6874C17.0924 24.7851 17.0924 24.9426 16.9952 25.0402L16.066 25.9722C15.9697 26.0689 15.8119 26.0699 15.7146 25.9722Z" stroke="#0E0E0E"/>
</svg>
