<svg width="60" height="60" viewBox="0 0 60 60" fill="none" xmlns="http://www.w3.org/2000/svg">
<path d="M8.01264 26.1892C8.96339 26.8081 8.71896 26.6416 24.2998 26.8027C24.3363 26.8154 24.3737 26.8273 24.4146 26.8273C24.4511 26.8273 24.4851 26.8163 24.5181 26.8054C50.0518 27.0694 50.2797 27.3771 52.303 26.3048C55.1387 24.7992 55.3875 20.9324 52.0107 19.7837C50.6146 19.3103 52.6683 19.4623 11.5738 19.172C8.16487 19.1292 6.69307 19.8565 6.75831 23.5904V23.5913C6.77832 24.7036 7.25935 25.6994 8.01264 26.1892ZM11.5677 19.9393C52.7231 20.2297 50.5363 20.0913 51.7837 20.5137C54.5837 21.4649 54.154 24.4606 51.9707 25.6193C51.4435 25.8988 50.8694 26.059 50.2814 26.1537C50.2884 26.1236 50.2988 26.0954 50.2988 26.0626V22.6455C50.2988 22.4334 50.1344 22.2614 49.9317 22.2614C49.7291 22.2614 49.5647 22.4334 49.5647 22.6455V26.0626C49.5647 26.1254 49.5821 26.1819 49.6073 26.2338C48.827 26.2984 48.0563 26.2811 47.1082 26.2711V22.5226C47.1082 22.3105 46.9438 22.1385 46.7411 22.1385C46.5384 22.1385 46.374 22.3105 46.374 22.5226V26.2629L43.9184 26.2374V22.2769C43.9184 22.0648 43.754 21.8927 43.5514 21.8927C43.3487 21.8927 43.1843 22.0648 43.1843 22.2769V26.2301L40.7278 26.2046V22.5572C40.7278 22.3451 40.5634 22.1731 40.3607 22.1731C40.1581 22.1731 39.9937 22.3451 39.9937 22.5572V26.1964L37.5381 26.171V22.3579C37.5381 22.1458 37.3737 21.9737 37.171 21.9737C36.9683 21.9737 36.8039 22.1458 36.8039 22.3579V26.1637L34.3483 26.1382V22.4398C34.3483 22.2277 34.1839 22.0557 33.9812 22.0557C33.7786 22.0557 33.6142 22.2277 33.6142 22.4398V26.13L31.1586 26.1045V22.4817C31.1586 22.2696 30.9942 22.0975 30.7915 22.0975C30.5888 22.0975 30.4244 22.2696 30.4244 22.4817V26.0981L27.9679 26.0726V22.5217C27.9679 22.3096 27.8035 22.1376 27.6009 22.1376C27.3982 22.1376 27.2338 22.3096 27.2338 22.5217V26.0645L24.7808 26.0399V22.7684C24.7808 22.5563 24.6164 22.3843 24.4137 22.3843C24.211 22.3843 24.0466 22.5563 24.0466 22.7684V26.0326L21.5911 26.0071V22.6455C21.5911 22.4334 21.4266 22.2614 21.224 22.2614C21.0213 22.2614 20.8569 22.4334 20.8569 22.6455V25.9998L18.4004 25.9743V22.9323C18.4004 22.7202 18.236 22.5481 18.0334 22.5481C17.8307 22.5481 17.6663 22.7202 17.6663 22.9323V25.9671L15.2107 25.9416V23.0142C15.2107 22.8021 15.0463 22.63 14.8436 22.63C14.6409 22.63 14.4765 22.8021 14.4765 23.0142V25.9343L12.0209 25.9088V23.3C12.0209 23.0879 11.8565 22.9159 11.6538 22.9159C11.4512 22.9159 11.2868 23.0879 11.2868 23.3V25.9006C9.51836 25.8824 7.53596 26.1336 7.4916 23.5758C7.43419 20.3307 8.58501 19.902 11.5677 19.9393Z" fill="#E9E9E9" stroke="#E9E9E9"/>
<path d="M50.2632 30.3281C46.2636 30.2043 42.4719 34.722 47.6771 38.4113C51.3261 40.9964 53.8965 38.8964 54.6637 36.9412C55.8119 34.0138 53.7687 30.3828 50.2632 30.3281ZM48.4982 38.0499L48.814 37.7195L49.7212 38.6689C49.2759 38.5096 48.8644 38.2866 48.4982 38.0499ZM49.0741 37.4473L49.7038 36.7883L50.6198 37.7468L50.0613 38.3312C50.0335 38.3603 50.0257 38.3994 50.0196 38.4367L49.0741 37.4473ZM50.0509 38.7654C50.0553 38.7617 50.0622 38.7635 50.0666 38.759C50.1014 38.7226 50.117 38.6752 50.1188 38.6279C50.1431 38.6397 50.1649 38.6589 50.191 38.6589C50.2379 38.6589 50.2849 38.6397 50.3206 38.6024L50.879 38.018L51.6106 38.7836C50.9712 38.9547 50.5554 38.8964 50.0509 38.7654ZM51.9976 38.647L51.1374 37.7468L52.1072 36.7318L52.61 37.258L51.9228 37.9771C51.8515 38.0517 51.8515 38.1737 51.9228 38.2483C51.9585 38.2856 52.0055 38.3048 52.0524 38.3048C52.0994 38.3048 52.1464 38.2856 52.182 38.2483L52.8692 37.5292L53.1789 37.8533C52.837 38.1964 52.4343 38.4695 51.9976 38.647ZM52.3673 36.4597L53.3746 35.4056L53.8774 35.9317L52.8701 36.9858L52.3673 36.4597ZM53.4372 37.5793L53.1302 37.258L54.114 36.2285C53.994 36.6972 53.8226 37.105 53.4372 37.5793ZM54.2271 35.5803C54.221 35.5858 54.2114 35.5831 54.2053 35.5894L54.1366 35.6614L53.0215 34.4944C52.9501 34.4198 52.8336 34.4198 52.7622 34.4944C52.6909 34.569 52.6909 34.691 52.7622 34.7657L53.1154 35.1352L52.1081 36.1893L51.3287 35.3737C51.2574 35.2991 51.1408 35.2991 51.0695 35.3737C50.9982 35.4484 50.9982 35.5703 51.0695 35.645L51.8489 36.4606L50.879 37.4755L49.9631 36.517L51.6601 34.7411C51.7315 34.6664 51.7315 34.5445 51.6601 34.4698C51.5888 34.3952 51.4722 34.3952 51.4009 34.4698L49.7038 36.2457L49.4524 35.9827C49.3811 35.908 49.2646 35.908 49.1932 35.9827C49.1219 36.0573 49.1219 36.1793 49.1932 36.2539L49.4446 36.517L48.8148 37.176L47.9493 36.2703C47.878 36.1957 47.7615 36.1957 47.6901 36.2703C47.6188 36.345 47.6188 36.4669 47.6901 36.5416L48.5556 37.4473L48.1825 37.8378C48.1529 37.8169 48.1181 37.7959 48.0894 37.775C43.4992 34.5199 46.9768 31.0946 50.1857 31.0946C50.2084 31.0946 50.231 31.0946 50.2536 31.0955C51.3905 31.1137 52.3978 31.5661 53.1676 32.4063C53.9383 33.2492 54.3184 34.4489 54.2271 35.5803Z" fill="#E9E9E9" stroke="#E9E9E9"/>
<path d="M45.5677 47.0114C45.5555 52.7087 54.2514 52.8343 53.352 45.6032C52.6039 39.5936 45.5781 41.6991 45.5677 47.0114ZM52.4517 44.834L52.0777 44.4417L52.2534 44.2578C52.3291 44.4335 52.3961 44.6256 52.4517 44.834ZM47.5988 49.7849L48.326 49.0239C48.7235 49.4399 49.5925 50.4949 49.609 49.9105L50.5189 48.9584L51.2966 49.7722C50.2562 50.5113 48.8018 50.6988 47.5988 49.7849ZM48.5852 48.7527L49.4646 47.8324C49.4725 47.8451 49.4699 47.8615 49.4803 47.8725L50.2588 48.6871L49.3907 49.5956L48.5852 48.7527ZM51.5932 49.5401L50.7781 48.6871L51.5366 47.8934C51.728 48.0937 52.1603 48.6607 52.3456 48.4723C52.1795 48.8665 52.0316 49.1441 51.5932 49.5401ZM52.4004 48.3303C52.3969 48.2074 51.8881 47.7168 51.7959 47.6212L51.9481 47.4619C52.0194 47.3873 52.0194 47.2653 51.9481 47.1907C51.8767 47.116 51.7602 47.116 51.6889 47.1907L51.5358 47.3509L50.9608 46.7492C50.8895 46.6746 50.7729 46.6746 50.7016 46.7492C50.6302 46.8238 50.6302 46.9458 50.7016 47.0205L51.2765 47.6221L50.518 48.4159L49.7395 47.6012C49.7291 47.5903 49.7134 47.5921 49.7012 47.5848L50.4354 46.8166C50.5067 46.7419 50.5067 46.6199 50.4354 46.5453C50.3641 46.4707 50.2475 46.4707 50.1762 46.5453L48.326 48.4814L48.0172 48.1583C47.9459 48.0836 47.8293 48.0836 47.758 48.1583C47.6867 48.2329 47.6867 48.3549 47.758 48.4295L48.0668 48.7527L47.31 49.5437C46.6594 48.9165 46.2992 48.0345 46.301 47.0132C46.3088 43.1819 50.572 41.3796 52.0786 43.8992L51.8185 44.1713C51.6306 43.9738 51.3722 44.2469 51.5593 44.4426C51.3705 44.6401 51.6314 44.9096 51.8185 44.7139L52.2482 45.1635L51.6932 45.7443C51.4958 45.5376 51.2322 45.1453 51.0469 45.3392C50.9756 45.4138 50.9756 45.5358 51.0469 45.6105L51.434 46.0155C51.2539 46.2039 50.9678 46.4124 51.1409 46.5935C51.3192 46.7801 51.5149 46.4734 51.6932 46.2868L52.0994 46.711C52.2699 46.8894 52.5317 46.6209 52.3586 46.4397L51.9533 46.0155L52.5683 45.372C52.7362 46.3632 52.7483 47.3982 52.4004 48.3303Z" fill="#E9E9E9" stroke="#E9E9E9"/>
<path d="M42.5414 34.8758C42.4353 31.1401 41.248 30.2453 38.0095 30.2225L18.4544 30.2999C17.6593 30.2917 16.8182 30.259 15.9239 30.2125C7.62729 29.7847 6.90792 31.0791 6.82355 35.4565C6.81746 35.7942 6.8105 36.1247 6.79223 36.4387L6.21552 46.2995C6.15202 46.4124 6.13897 46.5226 6.19464 46.65C5.9911 50.1272 5.74406 52.6996 10.9397 52.7342L37.5902 52.9062C37.6572 52.9071 37.7233 52.9071 37.7903 52.9071C41.8899 52.9071 43.0016 51.2969 42.8868 47.2007L42.5414 34.8758ZM11.0136 51.9668H10.9449C9.26609 51.9559 7.48115 51.7729 6.98099 50.1163H11.0136V51.9668ZM11.0136 49.348H6.84616C6.79049 48.6571 6.86095 47.8352 6.91749 46.8739H11.0136V49.348ZM11.0136 46.1066H6.96185L7.12886 43.2529H11.0136V46.1066ZM11.0136 42.4847H7.1741L7.35938 39.3133H11.0136V42.4847ZM11.0136 38.546H7.40461C7.58032 35.5412 7.529 36.5443 7.56901 34.9932H11.0128L11.0136 38.546ZM11.0136 34.2259H7.60467C7.77777 31.8018 8.68068 31.3076 11.0136 31.0072V34.2259ZM15.8874 51.9987L11.7469 51.9723V50.1163H15.8874V51.9987ZM15.8874 49.348H11.7469V46.8739H15.8874V49.348ZM15.8874 46.1066H11.7469V43.2529H15.8874V46.1066ZM15.8874 42.4847H11.7469V39.3133H15.8874V42.4847ZM15.8874 38.546H11.7469V34.9932H15.8874V38.546ZM15.8874 34.2259H11.7469V30.9325C13.0787 30.8361 14.4965 30.9061 15.8874 30.979V34.2259ZM39.4387 31.0645C41.1714 31.3267 41.6603 32.3962 41.7768 34.2259H39.4387V31.0645ZM39.4387 34.9932H41.8108L41.9108 38.5532C41.8986 38.5523 41.8891 38.546 41.8769 38.546H39.4387V34.9932ZM39.4387 39.3142H41.8769C41.8969 39.3142 41.9134 39.3051 41.9326 39.3024L42.0221 42.4847H39.4396L39.4387 39.3142ZM39.4387 43.2529H42.043L42.1231 46.1066H39.4387V43.2529ZM36.2811 30.9972L38.013 30.9899C38.247 30.9872 38.4784 30.9899 38.7054 30.9981V34.225H36.282L36.2811 30.9972ZM36.2811 34.9932H38.7045V38.546H36.2811V34.9932ZM36.2811 39.3142H38.7045V42.4856H36.2811V39.3142ZM36.2811 43.2529H38.7045V46.1066H36.2811V43.2529ZM36.2811 46.8739H38.7045V49.348H36.2811V46.8739ZM32.7591 31.0108L35.547 30.9999V34.2259H32.7591V31.0108ZM32.7591 34.9932H35.547V38.546H32.7591V34.9932ZM32.7591 39.3142H35.547V42.4856H32.7591V39.3142ZM32.7591 43.2529H35.547V46.1066H32.7591V43.2529ZM32.7591 46.8739H35.547V49.348H32.7591V46.8739ZM21.0865 52.0315L16.6207 52.0023V50.1154H21.0865V52.0315ZM21.0865 49.348H16.6216V46.8739H21.0874L21.0865 49.348ZM21.0865 46.1066H16.6216V43.2529H21.0874L21.0865 46.1066ZM21.0865 42.4847H16.6216V39.3133H21.0874L21.0865 42.4847ZM21.0865 38.546H16.6216V34.9932H21.0874L21.0865 38.546ZM21.0865 31.0955V34.225H16.6216V31.0136C17.2531 31.0445 17.8681 31.07 18.4578 31.0664L21.0944 31.0563C21.0935 31.07 21.0865 31.0818 21.0865 31.0955ZM25.1487 31.0409V34.2259H21.8207V31.0964C21.8207 31.0818 21.8146 31.0691 21.8129 31.0545L25.1487 31.0409ZM21.8207 46.1066V43.2529H25.1487V46.1066H21.8207ZM25.1487 46.8739V49.348H21.8207V46.8739H25.1487ZM21.8207 42.4847V39.3133H25.1487V42.4847H21.8207ZM21.8207 38.546V34.9932H25.1487V38.546H21.8207ZM21.8207 52.0369V50.1163H25.1487V51.7547C25.1487 51.8822 25.2122 51.9896 25.3027 52.0597L21.8207 52.0369ZM28.9665 52.0824L25.7237 52.0615C25.8168 51.9923 25.882 51.8831 25.882 51.7538V50.1154H28.9665V52.0824ZM28.9665 49.348H25.882V46.8739H28.9665V49.348ZM28.9665 46.1066H25.882V43.2529H28.9665V46.1066ZM28.9665 42.4847H25.882V39.3133H28.9665V42.4847ZM28.9665 38.546H25.882V34.9932H28.9665V38.546ZM28.9665 31.1801V34.225H25.882V31.0381L28.9987 31.0263C28.9787 31.0727 28.9665 31.1246 28.9665 31.1801ZM32.0258 31.0136V34.2259H29.7007V31.181C29.7007 31.1246 29.6876 31.0718 29.6668 31.0236L32.0258 31.0136ZM29.7007 46.1066V43.2529H32.0258V46.1066H29.7007ZM32.0258 46.8739V49.348H29.7007V46.8739H32.0258ZM29.7007 42.4847V39.3133H32.0258V42.4847H29.7007ZM29.7007 38.546V34.9932H32.0258V38.546H29.7007ZM29.7007 52.087V50.1154H32.0258V51.925C32.0258 51.9905 32.0449 52.0487 32.0728 52.1025L29.7007 52.087ZM32.7104 52.107C32.7391 52.0524 32.76 51.9923 32.76 51.9259V50.1163H35.5478V51.7993C35.5478 51.9413 35.6244 52.0597 35.734 52.1261L32.7104 52.107ZM37.5955 52.138L36.0915 52.1279C36.2028 52.0624 36.2803 51.9422 36.2803 51.7984V50.1154H38.7037V51.6018C38.7037 51.8139 38.8681 51.9859 39.0707 51.9859C39.2734 51.9859 39.4378 51.8139 39.4378 51.6018V50.1154H41.8778C41.2358 51.9969 39.5144 52.1525 37.5955 52.138ZM42.07 49.348H39.4387V46.8739H42.1448L42.1544 47.2226C42.1752 47.9462 42.1752 48.6781 42.07 49.348Z" fill="#E9E9E9" stroke="#E9E9E9"/>
<path d="M57.4316 24.5352C57.3499 18.7605 55.8459 16.6551 49.8474 16.2337C39.9737 15.5464 29.9608 15.4791 20.074 16.027C20.1584 15.3289 20.0688 14.6425 19.8131 14.0381L41.4907 2.58249C41.6716 2.48691 41.7438 2.25662 41.6525 2.06637C41.5611 1.87704 41.3402 1.80149 41.1593 1.89706L19.4469 13.3718C16.7825 9.6807 10.7683 13.329 10.8405 16.7197C5.2004 17.1976 2.50734 18.5794 2.34294 26.8282C1.89844 47.1616 2.22377 50.4412 4.03654 53.1838C6.42255 56.8067 10.8788 57.5258 15.3107 57.5258C16.8564 57.5258 18.3996 57.4384 19.8505 57.3556C21.7398 57.2491 49.3185 56.5254 50.0605 56.5063C52.3821 56.4398 54.776 56.2314 56.3052 54.5265C56.3052 54.5265 56.306 54.5265 56.306 54.5256C57.783 52.868 57.8674 50.4376 57.8283 48.0909L57.4316 24.5352ZM18.8823 13.8597C18.8397 14.0418 18.9284 14.2475 19.132 14.3094C19.3634 14.8328 19.4443 15.4454 19.3442 16.0662C16.5503 16.23 13.865 16.4376 11.5669 16.6542C11.573 14.0773 16.6529 10.7102 18.8823 13.8597ZM50.0413 55.738C49.3063 55.7572 21.6998 56.4817 19.8113 56.5891C14.3808 56.895 7.62469 57.28 4.64022 52.7478C3.10841 50.4294 2.60824 48.2785 3.07622 26.8446C3.27107 17.0347 6.45995 17.5727 19.6643 16.8153C24.1806 16.5568 28.7238 16.4275 33.2697 16.4275C38.7915 16.4275 44.3177 16.6178 49.7987 17.0001C55.4562 17.3988 56.6235 19.2302 56.6983 24.548L57.095 48.1046C57.1933 53.9202 55.7537 55.5742 50.0413 55.738Z" fill="#E9E9E9" stroke="#E9E9E9"/>
</svg>
