<svg width="60" height="60" viewBox="0 0 60 60" fill="none" xmlns="http://www.w3.org/2000/svg">
<rect width="60" height="60" fill="#222222"/>
<path d="M32.2907 23.9353C28.4401 23.8526 24.5315 23.8248 20.6709 23.8518C18.4373 23.8636 16.1665 23.8956 13.922 23.9463C9.55361 24.0425 8.40732 25.5732 8.31029 29.6869C8.23229 32.8817 8.22504 42.2433 8.2994 43.7935C8.33749 44.6736 8.50526 45.4829 8.79727 46.1993C8.93421 46.5368 9.71503 47.4752 9.93631 47.7823C9.93631 47.8954 9.98528 48.0034 10.0714 48.0827C11.4807 49.3755 13.4495 49.5882 15.3449 49.6945C22.4393 50.0962 29.785 50.1105 37.1878 49.6903C38.9589 49.5915 40.7962 49.389 42.0876 48.119C43.5821 46.644 43.7145 44.3774 43.7236 42.132C43.739 38.1271 43.7535 34.118 43.7726 30.1131V30.1122C43.7844 25.9605 42.6698 24.2636 37.8507 24.0931C35.9998 24.0264 34.1452 23.975 32.2907 23.9353ZM36.1703 24.8897C36.5766 24.9024 36.9837 24.9099 37.39 24.9243L36.7987 25.4745L36.1703 24.8897ZM33.3898 24.8112C34.0337 24.8264 34.6776 24.8475 35.3214 24.8661L34.3856 25.7369L33.3898 24.8112ZM32.4467 24.7842L31.3557 25.7994C31.2822 25.8677 31.285 25.9656 31.3321 26.0458L30.6483 25.4095L31.1145 24.9758C31.178 24.9167 31.1798 24.8365 31.1526 24.7631C31.5244 24.7699 31.8989 24.7716 32.2698 24.7792C32.3288 24.7808 32.3877 24.7834 32.4467 24.7842ZM30.3282 25.1116L29.9355 24.7462C30.1931 24.7505 30.4515 24.753 30.7091 24.7572L30.3282 25.1116ZM27.535 24.7116L27.1188 25.099L26.6889 24.699C26.9719 24.7015 27.2521 24.7083 27.535 24.7116ZM25.0049 24.6965L24.4354 25.2264L23.8658 24.6965C24.2458 24.6965 24.624 24.6948 25.0049 24.6965ZM17.6946 24.7251C18.2831 24.7176 18.8681 24.7133 19.4539 24.7083L18.2188 25.8576L17.3482 25.0475L17.6946 24.7251ZM17.028 24.7488L17.0126 24.7344C17.0235 24.7344 17.0335 24.7344 17.0444 24.7336L17.028 24.7488ZM13.9429 24.791C14.1451 24.7867 14.3482 24.7842 14.5505 24.78L13.8939 25.3909L13.2763 24.8163C13.4985 24.8045 13.7207 24.796 13.9429 24.791ZM11.8335 26.2719L11.926 26.1858C12.0149 26.1031 12.0149 25.9698 11.926 25.8871C11.8371 25.8044 11.6938 25.8044 11.6049 25.8871L11.5124 25.974L10.8631 25.3698C11.4036 25.0686 12.0484 24.9268 12.7286 24.8585C12.7394 24.8846 12.7394 24.9133 12.7621 24.9344L13.5729 25.6888L12.3894 26.79L11.8335 26.2719ZM10.4895 25.6179L11.1923 26.2719L9.56993 27.7815L9.39672 27.6204C9.55089 26.8449 9.83927 26.1344 10.4895 25.6179ZM9.25253 33.1501C9.1827 33.2151 9.1836 33.3079 9.22532 33.3864C9.18451 33.4648 9.1827 33.5577 9.25253 33.6226L10.1576 34.4648L9.15821 35.3947C9.16456 33.6876 9.17725 32.0539 9.1963 30.8143C9.20174 30.8599 9.21534 30.9055 9.25253 30.9401C9.27701 30.9628 9.31056 30.9637 9.3414 30.9738C9.35228 31.0025 9.35319 31.0337 9.37767 31.0565L10.4396 32.0446L9.25253 33.1501ZM9.1573 39.716L9.2498 39.8021L9.15821 39.8873C9.1573 39.83 9.1573 39.7743 9.1573 39.716ZM9.15549 36.8571L9.68782 37.3524L9.15458 37.8486C9.15458 37.5204 9.15458 37.1904 9.15549 36.8571ZM9.25253 30.6422C9.21534 30.6768 9.20355 30.7215 9.19721 30.7662C9.20355 30.3713 9.2099 30.0042 9.21716 29.7055C9.22804 29.2549 9.24708 28.8136 9.2888 28.3883C9.3278 28.4127 9.3677 28.4364 9.41304 28.4364C9.46927 28.4364 9.52459 28.4153 9.56812 28.3765L10.6282 29.3629L9.25253 30.6422ZM9.33596 44.839L9.87555 45.3411L9.56539 45.6297C9.56449 45.6305 9.5654 45.6314 9.56449 45.6322C9.47652 45.3774 9.39128 45.1192 9.33596 44.839ZM42.8666 30.1106C42.8476 34.1163 42.8322 38.1245 42.8176 42.1809C42.8104 44.207 42.697 46.2904 41.4292 47.5402C40.3655 48.5857 38.724 48.7604 37.1343 48.849C29.9002 49.2591 22.5872 49.2599 15.4002 48.8523C13.6481 48.7536 11.9786 48.5789 10.796 47.5604C10.6437 47.179 9.91091 46.3444 9.68873 45.9757C9.70233 45.9782 9.71231 45.99 9.72682 45.99C9.78486 45.99 9.8429 45.9698 9.88733 45.9284L10.1975 45.6398L10.8522 46.2491C10.9411 46.3318 11.0844 46.3318 11.1724 46.2491C11.2612 46.1664 11.2612 46.033 11.1724 45.9503L10.5176 45.3411L12.1083 43.861C12.1971 43.7783 12.1971 43.645 12.1083 43.5623C12.0194 43.4796 11.8761 43.4796 11.7881 43.5623L10.1975 45.0424L9.25525 44.1673C9.24164 44.0289 9.21172 43.9007 9.20537 43.7572C9.19993 43.6433 9.19539 43.4745 9.19086 43.2804C9.19358 43.3311 9.21172 43.3817 9.25343 43.4205C9.3423 43.5032 9.48559 43.5032 9.57446 43.4205L10.1032 42.9285L10.8441 43.618C10.933 43.7007 11.0762 43.7007 11.1642 43.618C11.2531 43.5353 11.2531 43.4019 11.1642 43.3201L10.4233 42.6307L11.702 41.4408C11.7909 41.3582 11.7909 41.2248 11.702 41.1421C11.6131 41.0594 11.4698 41.0594 11.381 41.1421L10.1023 42.3319L9.63613 41.8974C9.54726 41.8147 9.40397 41.8147 9.3151 41.8974C9.22623 41.9801 9.22623 42.1134 9.3151 42.1961L9.78123 42.6298L9.25253 43.1218C9.21081 43.1606 9.19267 43.2112 9.18995 43.2627C9.17544 42.6416 9.16547 41.6628 9.16002 40.4814L9.56993 40.1L10.504 40.9691C10.5929 41.0518 10.7362 41.0518 10.8241 40.9691C10.913 40.8864 10.913 40.7531 10.8241 40.6704L9.89006 39.8013L11.897 37.9338C11.9858 37.8511 11.9858 37.7178 11.897 37.6351C11.8081 37.5524 11.6648 37.5524 11.5759 37.6351L9.56902 39.5025L9.1963 39.1557C9.18451 39.1448 9.16728 39.1473 9.15458 39.1397C9.15368 38.9017 9.15368 38.6654 9.15368 38.4207C9.16728 38.4123 9.18451 38.4148 9.19721 38.4039L10.0079 37.6495L10.3861 38.0013C10.475 38.084 10.6183 38.084 10.7071 38.0013C10.796 37.9186 10.796 37.7853 10.7071 37.7026L10.329 37.3507L11.5841 36.1829C11.673 36.1002 11.673 35.9668 11.5841 35.8841C11.4952 35.8014 11.3519 35.8014 11.2631 35.8841L10.0079 37.052L9.15549 36.2588C9.15549 36.1381 9.1564 36.0183 9.1564 35.8976C9.15821 35.8976 9.16002 35.8993 9.16184 35.8993C9.21988 35.8993 9.27792 35.8791 9.32235 35.8377L10.4786 34.7618L10.9003 35.1542C10.9892 35.2369 11.1325 35.2369 11.2213 35.1542C11.3102 35.0715 11.3102 34.9382 11.2213 34.8555L10.7996 34.4631L11.7818 33.5492C11.8707 33.4665 11.8707 33.3332 11.7818 33.2505C11.6929 33.1678 11.5496 33.1678 11.4617 33.2505L10.4795 34.1644L9.64067 33.3838L10.7616 32.3408L11.0753 32.6328C11.1642 32.7155 11.3075 32.7155 11.3964 32.6328C11.4852 32.5501 11.4852 32.4168 11.3964 32.3341L11.0826 32.0421L12.1101 31.086C12.199 31.0033 12.199 30.87 12.1101 30.7873C12.0212 30.7046 11.8779 30.7046 11.789 30.7873L10.7616 31.7434L9.73498 30.7882L10.9502 29.6574L11.6893 30.3451C11.7782 30.4278 11.9214 30.4278 12.0094 30.3451C12.0983 30.2624 12.0983 30.1291 12.0094 30.0464L11.2703 29.3587L12.4066 28.3014C12.4955 28.2187 12.4955 28.0853 12.4066 28.0035C12.3177 27.9208 12.1745 27.9208 12.0865 28.0035L10.9502 29.06L9.89187 28.0752L11.5143 26.5656L12.9589 27.9098C13.0478 27.9925 13.1911 27.9925 13.279 27.9098C13.3679 27.8271 13.3679 27.6938 13.279 27.6111L12.7122 27.0837L13.8957 25.9825L14.945 26.9588C15.0338 27.0415 15.1771 27.0415 15.266 26.9588C15.3549 26.8761 15.3549 26.7428 15.266 26.6609L14.2167 25.6846L14.9105 25.0391C14.9903 24.9648 14.9885 24.8517 14.9232 24.769C15.4102 24.7589 15.8972 24.7505 16.386 24.742L16.7097 25.0433L15.6478 26.0314C15.5589 26.1141 15.5589 26.2474 15.6478 26.3301C15.7367 26.4128 15.8799 26.4128 15.9679 26.3301L17.0299 25.342L17.9004 26.1521L17.7164 26.3234C17.6275 26.4061 17.6275 26.5394 17.7164 26.6221C17.8052 26.7048 17.9485 26.7048 18.0374 26.6221L18.2215 26.4508L18.4047 26.6213C18.4935 26.704 18.6368 26.704 18.7257 26.6213C18.8146 26.5386 18.8146 26.4052 18.7257 26.3225L18.5425 26.1521L19.8593 24.9268C19.9264 24.8644 19.9264 24.7775 19.891 24.7007C20.0044 24.6998 20.1196 24.6981 20.2329 24.6973C20.184 24.7032 20.135 24.715 20.0978 24.7496C20.0089 24.8323 20.0089 24.9656 20.0978 25.0475L21.3701 26.2306C21.3801 26.2652 21.3846 26.3023 21.4146 26.3301C21.4436 26.358 21.4835 26.3622 21.5216 26.3715L21.7646 26.5976C21.8535 26.6803 21.9968 26.6803 22.0857 26.5976C22.1745 26.5149 22.1745 26.3816 22.0857 26.2989L21.9279 26.1512L22.959 25.1918C23.0479 25.1091 23.0479 24.9758 22.959 24.8931C22.8701 24.8104 22.7268 24.8104 22.6379 24.8931L21.6068 25.8525L20.4197 24.7479C20.3816 24.7125 20.3327 24.7007 20.2837 24.6956C20.4152 24.6948 20.5494 24.6922 20.6809 24.6922C21.5261 24.6863 22.3786 24.6931 23.2274 24.6922L24.118 25.5209L23.563 26.0373C23.4741 26.12 23.4741 26.2533 23.563 26.336C23.6518 26.4187 23.7951 26.4187 23.8831 26.336L24.439 25.8188L24.8915 26.2398C24.9804 26.3225 25.1237 26.3225 25.2126 26.2398C25.3014 26.1572 25.3014 26.0238 25.2126 25.9411L24.76 25.52L25.6506 24.6914C25.8093 24.6922 25.9671 24.6905 26.1249 24.6914C26.1312 24.7353 26.143 24.7792 26.1784 24.8129L26.8014 25.3926L26.3688 25.7951C26.2799 25.8778 26.2799 26.0112 26.3688 26.0939C26.4577 26.1766 26.601 26.1766 26.6898 26.0939L27.1224 25.6913L27.5296 26.0702C27.6185 26.1529 27.7618 26.1529 27.8506 26.0702C27.9395 25.9875 27.9395 25.8542 27.8506 25.7724L27.4435 25.3935L27.9477 24.9243C28.0103 24.8661 28.0121 24.7867 27.9867 24.7142C28.4211 24.7192 28.8545 24.7268 29.288 24.7327L30.0117 25.4061L29.6444 25.7479C29.5556 25.8306 29.5556 25.9639 29.6444 26.0466C29.7333 26.1293 29.8766 26.1293 29.9646 26.0466L30.3318 25.7048L31.2251 26.536C31.314 26.6187 31.4573 26.6187 31.5461 26.536C31.635 26.4533 31.635 26.32 31.5461 26.2373L31.4156 26.1158C31.5053 26.1622 31.586 26.1816 31.6804 26.0939L32.9246 24.9361C32.9346 24.953 32.9327 24.9741 32.9482 24.9884L34.4572 26.3934C34.5461 26.4761 34.6894 26.4761 34.7782 26.3934C34.8671 26.3107 34.8671 26.1774 34.7782 26.0947L34.7102 26.0314L35.7377 25.0762L37.0236 26.2728C37.1125 26.3555 37.2558 26.3555 37.3438 26.2728C37.4326 26.1901 37.4326 26.0567 37.3438 25.974L37.1234 25.769L37.9423 25.007C37.9623 24.9884 37.9614 24.9623 37.9722 24.9395C38.2389 24.9505 38.5082 24.9665 38.7775 24.9893L38.8546 25.061L38.2724 25.6027C38.1835 25.6854 38.1835 25.8188 38.2724 25.9015C38.3613 25.9842 38.5046 25.9842 38.5934 25.9015L39.1757 25.3597L39.8848 26.0196C39.9737 26.1023 40.117 26.1023 40.2059 26.0196C40.2947 25.9369 40.2947 25.8036 40.2059 25.7209L39.5121 25.0753C42.5293 25.5513 42.8739 27.3208 42.8666 30.1106Z" fill="black" stroke="#E9E9E9"/>
<path d="M21.7675 18.8577C18.4034 18.8755 15.0065 18.9185 11.6672 18.9885C5.3427 19.1134 3.45661 20.9454 3.30313 26.8312C3.18336 31.2842 3.17272 44.3385 3.28627 46.5029C3.48145 50.5238 5.29568 51.0301 5.79781 52.0723C5.79781 52.1938 5.85282 52.3094 5.94863 52.3896C8.04498 54.1389 11.0072 54.4274 13.8621 54.5734C24.9418 55.1447 36.2104 55.1413 47.3371 54.5684C55.8654 54.1363 57.103 51.112 57.1358 43.082C57.1571 37.8636 57.1793 32.6411 57.2068 27.4236V27.4228C57.2236 21.8002 55.6888 19.429 48.3618 19.1936C45.7243 19.1067 43.0265 19.0366 40.1325 18.9793C39.8753 18.3852 39.4379 17.8688 38.9464 17.4392C38.9367 17.4072 38.9331 17.3717 38.9056 17.3464C38.871 17.3135 38.8258 17.3042 38.7805 17.2975C38.5135 17.0781 38.2411 16.8857 37.9776 16.7186C37.9936 16.6503 37.9874 16.5794 37.9315 16.5262C37.8517 16.4503 37.731 16.4528 37.6441 16.5161C35.939 15.5077 34.1478 14.8495 32.377 14.5482C35.9088 11.9813 39.2028 9.10544 42.1934 5.97731C42.6778 6.3157 43.2695 6.50219 43.8799 6.46421C44.7245 6.41443 45.5593 5.9925 46.1723 5.30477C46.7046 4.70733 47 3.99344 47.0036 3.29473C47.0098 2.01462 45.9771 0.721012 44.3261 1.05264C43.2216 1.27626 42.1588 2.12432 41.6806 2.84665C41.1767 3.60696 41.1137 4.56303 41.5201 5.28114C41.5369 5.31068 41.5653 5.33262 41.5831 5.36131C38.4186 8.67846 34.917 11.7222 31.143 14.3972C30.5867 14.3558 30.0349 14.3415 29.492 14.3761C27.2954 12.0969 24.901 9.96279 22.3655 8.02701C22.3672 8.02195 22.3646 8.01689 22.3655 8.01182C23.0787 7.21692 23.2207 6.01613 22.6644 5.1014C22.1818 4.30735 21.2689 3.84239 20.2691 3.87192C17.6724 3.96728 16.8669 7.049 18.7964 8.3983C19.5532 8.92739 20.6674 9.04975 21.6371 8.56285C24.0307 10.3771 26.2947 12.3703 28.3884 14.4976C25.7615 14.9305 23.2198 16.4173 21.7675 18.8577ZM42.8685 5.23304C42.8783 5.2052 42.8774 5.17651 42.8801 5.14866L42.9182 5.18495L42.8685 5.23304ZM43.2332 5.48282L43.3325 5.57733C43.2811 5.56636 43.2349 5.54358 43.1853 5.52755L43.2332 5.48282ZM43.8462 5.61699C43.8622 5.54864 43.8551 5.4786 43.8001 5.42544L43.5472 5.18495L44.2463 4.52L44.634 4.88876L44.4211 5.09128C44.3341 5.17397 44.3341 5.3073 44.4211 5.39C44.4548 5.42206 44.5 5.43135 44.5435 5.4381C44.3146 5.53345 44.0813 5.60012 43.8462 5.61699ZM44.7715 4.0196L45.1636 4.39258C45.1583 4.3968 45.1512 4.39511 45.1468 4.39933L44.9463 4.59003L44.5586 4.22128L44.7715 4.0196ZM44.9463 5.18663L44.9676 5.20688C44.9241 5.23558 44.8815 5.26511 44.8371 5.29043L44.9463 5.18663ZM42.4329 3.29473C42.9927 2.45005 44.5763 1.44334 45.4528 2.00112C45.8591 2.26018 46.1209 2.76564 46.1182 3.28883C46.1173 3.41372 46.1031 3.53945 46.0765 3.66518C46.0712 3.61961 46.0579 3.57405 46.0215 3.53945L45.4351 2.98167L45.6693 2.75889C45.7562 2.6762 45.7562 2.54287 45.6693 2.46017C45.5824 2.37748 45.4422 2.37748 45.3552 2.46017L45.121 2.68295C45.0341 2.6011 44.8948 2.6011 44.8088 2.68295C44.7218 2.76565 44.7218 2.89897 44.8088 2.98083L44.8247 2.99601C44.7795 3.07618 44.7768 3.17322 44.8478 3.24073C44.8913 3.28208 44.948 3.30233 45.0048 3.30233C45.0412 3.30233 45.0722 3.27955 45.1051 3.26267L45.7074 3.83648C45.7509 3.87783 45.8077 3.89808 45.8645 3.89808C45.9212 3.89808 45.978 3.87783 46.0215 3.83648C46.0224 3.83564 46.0215 3.83395 46.0233 3.83311C45.9248 4.15461 45.7518 4.47105 45.4981 4.75627C45.4395 4.82209 45.3721 4.87441 45.3091 4.93348L45.2603 4.88707L45.4608 4.69636C45.4972 4.66176 45.5105 4.61535 45.5158 4.56978C45.5531 4.5605 45.5921 4.55628 45.6214 4.52843C45.7083 4.44574 45.7083 4.31241 45.6214 4.22971L45.0687 3.704C45.1139 3.62383 45.1166 3.52679 45.0456 3.45928C44.9702 3.38756 44.8575 3.39009 44.7715 3.4441C44.6854 3.39093 44.5737 3.3884 44.4982 3.46013C44.4273 3.52764 44.4291 3.62468 44.4752 3.70484L44.2463 3.92255L44.2277 3.90568C44.186 3.86602 44.1301 3.84408 44.0706 3.84408H44.0316C43.9092 3.84408 43.8293 3.93859 43.8293 4.05504C43.8293 4.12423 43.8728 4.1833 43.9314 4.22128L43.2332 4.88622L42.9812 4.64657C42.8943 4.56388 42.7541 4.56388 42.6672 4.64657C42.645 4.66767 42.645 4.6972 42.6334 4.72336C42.5092 4.66767 42.3682 4.66598 42.2466 4.72505C42.0781 4.29131 42.1366 3.74113 42.4329 3.29473ZM22.0718 5.98491C22.0683 5.93597 22.0523 5.88787 22.0133 5.84989L21.6247 5.48029L21.7586 5.35287C21.8048 5.41025 21.8598 5.45919 21.8988 5.52333C21.9858 5.66594 22.0363 5.82458 22.0718 5.98491ZM20.3055 4.71408C20.7402 4.70564 21.1279 4.83391 21.4428 5.05668L21.3106 5.18241L21.1368 5.01702C21.0498 4.93432 20.9096 4.93432 20.8236 5.01702C20.7366 5.09972 20.7366 5.23304 20.8236 5.3149L20.9975 5.48029L20.8236 5.64568C20.7366 5.72838 20.7366 5.86171 20.8236 5.94356C20.8671 5.98491 20.9238 6.00516 20.9806 6.00516C21.0374 6.00516 21.0942 5.98491 21.1376 5.94356L21.3115 5.77817L21.7001 6.14777C21.7436 6.18912 21.8003 6.20937 21.8571 6.20937C21.9139 6.20937 21.9707 6.18912 22.0142 6.14777C22.0567 6.10642 22.078 6.05326 22.0789 6.0001C22.1951 6.54522 22.0266 7.14266 21.6167 7.54011L21.4748 7.58062C21.355 7.61437 21.2716 7.70298 21.2175 7.80677C21.1678 7.83124 21.1288 7.86921 21.0782 7.88946C21.0738 7.84221 21.0596 7.79495 21.0214 7.75867L20.9638 7.70382C20.97 7.70466 20.9744 7.71057 20.9797 7.71057C21.0365 7.71057 21.0933 7.69032 21.1368 7.64897L21.8935 6.93001C21.9804 6.84732 21.9804 6.71399 21.8935 6.63129C21.8066 6.5486 21.6664 6.5486 21.5794 6.63129L21.5253 6.68277L20.8644 6.0541C20.7775 5.97141 20.6373 5.97141 20.5503 6.0541C20.4634 6.1368 20.4634 6.27013 20.5503 6.35198L20.7775 6.56801C20.6905 6.4929 20.5574 6.49206 20.4732 6.57138L20.1227 6.9047L20.0855 6.86926C19.9985 6.78656 19.8584 6.78656 19.7714 6.86926C19.6845 6.95195 19.6845 7.08528 19.7714 7.16798L19.8096 7.20426L19.295 7.69369C18.077 6.79331 18.5551 4.77821 20.3055 4.71408ZM20.7916 6.58066L21.2122 6.98064L20.8236 7.35025C20.7757 7.39582 20.7606 7.45573 20.765 7.5148L20.4368 7.20258L20.7872 6.86926C20.8715 6.78994 20.8706 6.6642 20.7916 6.58066ZM19.712 7.89368L20.1236 7.50214L20.6346 7.98819C20.3197 8.03123 20.0056 8.00001 19.712 7.89368ZM26.5191 18.2173L26.9024 18.5818C26.8465 18.6772 26.8483 18.7717 26.9654 18.8442C26.937 18.8442 26.9033 18.8426 25.8972 18.8434C25.9097 18.8358 25.9247 18.8383 25.9354 18.8282C25.9629 18.8021 25.9673 18.7658 25.9771 18.7329L26.5191 18.2173ZM28.1772 17.9354L28.8373 18.5632C28.847 18.597 28.8515 18.6324 28.879 18.6594C28.9065 18.6856 28.9446 18.6898 28.9792 18.6991L29.0271 18.7447C29.1141 18.8274 29.2542 18.8274 29.3403 18.7447C29.4121 18.6763 29.4104 18.5776 29.3625 18.4974L30.0713 17.8232L30.7349 18.4544L30.6551 18.5303C30.5681 18.613 30.5681 18.7464 30.6551 18.8291C30.6746 18.8476 30.7021 18.8468 30.726 18.8569C30.726 18.8569 27.1951 18.8459 27.1943 18.8459C27.2661 18.8029 27.1783 18.8856 27.283 18.786C27.3956 18.7573 27.3992 18.754 27.4294 18.6468L28.1772 17.9354ZM32.4915 18.6594C32.5784 18.7421 32.7186 18.7421 32.8055 18.6594L32.9448 18.527L33.3148 18.878C32.7709 18.8729 32.228 18.8696 31.6842 18.8653C31.6442 18.8653 31.6043 18.8645 31.5653 18.8637C31.6096 18.7843 31.6114 18.6881 31.5413 18.6206L31.3648 18.4527L32.1171 17.7371L32.6325 18.2274L32.4932 18.3599C32.4045 18.4434 32.4045 18.5767 32.4915 18.6594ZM33.9721 18.7725C34.0591 18.8552 34.1992 18.8552 34.2853 18.7725L34.8983 18.1894L35.2337 18.5092C35.3082 18.5801 35.4164 18.5987 35.5247 18.5185C35.365 18.6704 35.3091 18.8096 35.5131 18.9092C34.9737 18.9025 34.437 18.8923 33.8976 18.8873C33.887 18.8586 33.8852 18.8265 33.8612 18.8029L33.258 18.2291L34.099 17.4291L34.5852 17.8915L33.9721 18.4746C33.8852 18.5565 33.8852 18.6898 33.9721 18.7725ZM36.9867 17.127L36.7347 17.3667L36.2486 16.9042L36.371 16.7878C36.5777 16.895 36.7826 17.0097 36.9867 17.127ZM37.4161 18.9345C36.8447 18.9253 36.2716 18.9185 35.6994 18.9109C35.7216 18.9008 35.7482 18.9025 35.7668 18.8847L36.7347 17.9633L37.0035 18.219C37.0905 18.3017 37.2307 18.3017 37.3176 18.219C37.4045 18.1363 37.4045 18.0029 37.3176 17.9202L37.0488 17.6646L37.3779 17.3515C37.605 17.4916 37.841 17.6553 38.0752 17.8375L37.2892 18.5852C37.1739 18.6957 37.204 18.9058 37.4161 18.9345ZM36.4207 17.6654L35.5575 18.4865C35.6258 18.4038 35.6285 18.2865 35.5477 18.2097L35.2124 17.8899L35.9354 17.2021L36.4207 17.6654ZM31.1616 18.8594C31.0738 18.8586 30.986 18.8569 30.8981 18.8569C30.9221 18.8468 30.9496 18.8476 30.9691 18.8291L31.049 18.7531L31.1616 18.8594ZM56.3196 27.4202C56.293 32.6377 56.2708 37.8611 56.2486 43.0786C56.2176 50.7297 55.255 53.3237 47.2901 53.7262C36.1776 54.3 24.9462 54.3017 13.91 53.7313C11.1491 53.5904 8.51517 53.338 6.63618 51.8394C6.07461 50.4124 4.36062 50.334 4.17254 46.4632C4.05899 44.3081 4.07052 31.296 4.19029 26.8532C4.32779 21.5741 5.69579 19.9505 11.6859 19.8332C23.2003 19.5927 36.2184 19.6375 48.3317 20.0366C55.1308 20.2551 56.3356 22.2407 56.3196 27.4202ZM37.4729 18.9354C37.5199 18.9295 37.5669 18.9185 37.6024 18.8847L38.4079 18.1177C38.69 18.3717 38.9517 18.6493 39.1434 18.9582C38.5889 18.9489 38.0282 18.9447 37.4729 18.9354ZM28.5605 15.3246C30.9088 14.9448 33.4904 15.3971 35.9585 16.5844L35.9345 16.6072L35.8848 16.5583C35.7979 16.4756 35.6577 16.4756 35.5708 16.5583C35.4839 16.641 35.4839 16.7743 35.5708 16.857L35.6214 16.9051L34.8983 17.5928L34.4122 17.1304L34.5133 17.0342C34.6002 16.9515 34.6002 16.8182 34.5133 16.7363C34.4264 16.6536 34.2862 16.6536 34.2001 16.7363L34.099 16.8317L34.0484 16.7836C33.9615 16.7009 33.8213 16.7009 33.7344 16.7836C33.6474 16.8663 33.6474 16.9996 33.7344 17.0823L33.7849 17.1304L32.9439 17.9304L32.4285 17.4401L32.8623 17.0274C32.9492 16.9448 32.9492 16.8114 32.8623 16.7287C32.7754 16.646 32.6352 16.646 32.5482 16.7287L32.1144 17.1414L32.094 17.122C32.0071 17.0393 31.8669 17.0393 31.78 17.122C31.693 17.2047 31.693 17.338 31.78 17.4207L31.8013 17.4401L31.049 18.1557L30.3854 17.5245L30.9345 17.0021C31.0215 16.9194 31.0215 16.7861 30.9345 16.7034C30.8476 16.6207 30.7074 16.6207 30.6205 16.7034L30.0669 17.23C29.9799 17.1574 29.8486 17.1557 29.7661 17.235C29.6827 17.3144 29.6845 17.4384 29.7608 17.5211L29.0635 18.1844L28.4806 17.6291C28.5445 17.5464 28.5472 17.4333 28.4682 17.3591C28.3813 17.2764 28.2411 17.2764 28.1542 17.3591L27.1978 18.2687L26.8305 17.9194L27.3974 17.3802C27.4844 17.2975 27.4844 17.1642 27.3974 17.0815C27.3105 16.9988 27.1703 16.9988 27.0834 17.0815L26.4313 17.7017C26.3958 17.711 26.3577 17.7152 26.3293 17.7422C26.3009 17.7692 26.2973 17.8055 26.2867 17.8392L25.7455 18.354L25.3987 18.024C25.3117 17.9413 25.1715 17.9413 25.0846 18.024C24.9977 18.1067 24.9977 18.2401 25.0846 18.3219L25.435 18.6552C25.3845 18.7101 25.3782 18.7784 25.3978 18.8451C25.058 18.8459 24.7182 18.8468 24.3784 18.8476C24.3988 18.7767 24.3944 18.7016 24.3358 18.6468L24.311 18.6232L25.4013 17.5861C25.4883 17.5034 25.4883 17.37 25.4013 17.2874C25.3144 17.2047 25.1742 17.2047 25.0873 17.2874L23.9969 18.3244L23.8577 18.192C23.7707 18.1093 23.6306 18.1093 23.5436 18.192C23.4567 18.2747 23.4567 18.408 23.5436 18.4907L23.6829 18.6232L23.4442 18.8502C23.2278 18.851 23.0104 18.851 22.794 18.8518C24.1593 16.9102 26.2867 15.6942 28.5605 15.3246Z" fill="black" stroke="#E9E9E9"/>
<path d="M54.5154 32.6326C55.0468 31.3727 54.8527 29.8799 54.0184 28.831C52.0967 26.416 47.7247 27.0033 46.4478 29.6546C45.7586 31.0866 46.0869 32.8806 47.2459 34.019C49.4015 36.1379 53.3174 35.4713 54.5154 32.6326ZM50.3302 32.6283L50.8344 33.0975L50.1506 33.7338L49.6464 33.2646L50.3302 32.6283ZM49.8305 34.0325L49.8114 34.0502C49.7226 34.1329 49.7226 34.2662 49.8114 34.3489C49.8359 34.3717 49.8695 34.3734 49.9003 34.3835C49.6691 34.3515 49.4423 34.2975 49.2229 34.224C49.2356 34.2165 49.2519 34.219 49.2628 34.2089C49.3516 34.1262 49.3516 33.9928 49.2628 33.9101L49.1086 33.7667L49.3263 33.5642L49.8305 34.0325ZM50.0118 34.3953C50.1125 34.3776 50.1125 34.3675 50.1869 34.2975C50.1996 34.3 50.2095 34.3118 50.2231 34.3118C50.2812 34.3118 50.3392 34.2916 50.3837 34.2502C50.4381 34.1996 50.4471 34.1329 50.4354 34.0679L51.1554 33.3979L51.4982 33.7169L51.2098 33.9844C51.121 34.0671 51.121 34.2004 51.2098 34.2831C51.2298 34.3025 51.2588 34.3017 51.2842 34.3118C50.9024 34.4072 50.5415 34.4527 50.0118 34.3953ZM51.4755 33.0984L52.0342 32.5785L52.377 32.8975L51.8183 33.4165L51.4755 33.0984ZM51.8192 34.0139L51.9063 34.0949C51.8065 34.1405 51.7041 34.1793 51.6007 34.2165L51.8192 34.0139ZM47.2758 29.9989C48.2743 27.9248 51.7893 27.4446 53.2893 29.3323C53.9422 30.1533 54.0919 31.328 53.6711 32.3237C53.4054 32.9532 52.9156 33.4983 52.3117 33.8755L52.1394 33.7152L52.6998 33.1937C52.7433 33.2308 52.7968 33.2519 52.8522 33.2519C52.9102 33.2519 52.9682 33.2317 53.0127 33.1903C53.0988 33.1102 53.0979 32.9828 53.0163 32.9001L53.2666 32.6672C53.4779 32.4714 53.1587 32.171 52.9456 32.3684L52.698 32.5988L52.3552 32.2798L52.5375 32.1111C52.6264 32.0284 52.6264 31.895 52.5375 31.8132C52.4486 31.7305 52.3053 31.7305 52.2165 31.8132L52.0351 31.982L51.5318 31.5136C51.4429 31.4309 51.2996 31.4309 51.2107 31.5136C51.1219 31.5963 51.1219 31.7296 51.2107 31.8115L51.714 32.2798L51.1563 32.7996L50.6521 32.3305L50.9622 32.0419C51.0511 31.9592 51.0511 31.8258 50.9622 31.744C50.8734 31.6613 50.7301 31.6613 50.6412 31.744L49.3263 32.9676L49.056 32.7161C48.9671 32.6334 48.8238 32.6334 48.735 32.7161C48.6461 32.7988 48.6461 32.9321 48.735 33.0148L49.0052 33.2663L48.7876 33.4688L48.4094 33.1169C48.3205 33.0342 48.1772 33.0342 48.0884 33.1169C47.9995 33.1996 47.9995 33.3329 48.0884 33.4156L48.4665 33.7675L48.4003 33.8274C48.2226 33.7118 48.053 33.5853 47.9034 33.4384C46.9911 32.5414 46.7317 31.1271 47.2758 29.9989Z" fill="black" stroke="#E9E9E9"/>
<path d="M46.3744 39.7292C46.2492 39.7292 46.1477 39.8238 46.1477 39.9402C46.1477 40.0567 46.2492 40.1512 46.3744 40.1512L54.7466 40.152C54.8718 40.152 54.9724 40.0575 54.9733 39.9411C54.9733 39.8246 54.8709 39.7301 54.7457 39.7301L46.3744 39.7292Z" fill="black" stroke="#E9E9E9"/>
<path d="M46.3744 42.6355L54.7466 42.6364C54.8718 42.6364 54.9724 42.5419 54.9733 42.4254C54.9733 42.309 54.8709 42.2145 54.7457 42.2145L46.3744 42.2136C46.2492 42.2136 46.1477 42.3081 46.1477 42.4246C46.1477 42.5419 46.2492 42.6355 46.3744 42.6355Z" fill="black" stroke="#E9E9E9"/>
<path d="M46.3744 45.1207L54.7466 45.1215C54.8718 45.1215 54.9724 45.027 54.9733 44.9105C54.9733 44.7941 54.8709 44.6996 54.7457 44.6996L46.3744 44.6987C46.2492 44.6987 46.1477 44.7932 46.1477 44.9097C46.1477 45.0261 46.2492 45.1207 46.3744 45.1207Z" fill="black" stroke="#E9E9E9"/>
<path d="M54.7475 47.2142L46.3753 47.2134C46.2502 47.2134 46.1495 47.3079 46.1495 47.4243C46.1495 47.5408 46.252 47.6353 46.3771 47.6353L54.7484 47.6361C54.8736 47.6361 54.9752 47.5416 54.9752 47.4252C54.9743 47.3079 54.8727 47.2142 54.7475 47.2142Z" fill="black" stroke="#E9E9E9"/>
<path d="M52.0659 30.9721C52.0432 31.0438 52.046 31.1206 52.1076 31.1771C52.1956 31.259 52.2491 31.2379 52.328 31.2159L52.7642 31.6218C52.7751 31.6404 52.7724 31.6632 52.7896 31.6784C52.8068 31.6944 52.8304 31.6919 52.8513 31.702L53.1224 31.9543C53.2113 32.037 53.3546 32.037 53.4434 31.9543C53.5323 31.8716 53.5323 31.7383 53.4434 31.6556L53.2893 31.5121L53.6774 31.151C53.6974 31.1408 53.7219 31.1434 53.7391 31.1273C53.7563 31.1113 53.7545 31.0885 53.7645 31.0699L53.8162 31.0218C53.905 30.9391 53.905 30.8058 53.8162 30.724C53.7527 30.6649 53.6665 30.6632 53.5876 30.6885L53.2711 30.394L53.5595 30.1257C53.6484 30.043 53.6484 29.9097 53.5595 29.827C53.4707 29.7443 53.3274 29.7443 53.2385 29.827L52.9501 30.0953L52.5719 29.7434C52.4831 29.6607 52.3398 29.6607 52.2509 29.7434C52.162 29.8261 52.162 29.9594 52.2509 30.0421L52.6291 30.394L52.3579 30.6463L52.357 30.6455C52.2681 30.5628 52.1249 30.5628 52.036 30.6455C51.9471 30.7282 51.9471 30.8615 52.036 30.9442L52.0659 30.9721ZM52.9492 30.6927L53.2385 30.9619L52.9673 31.2142L52.6781 30.9451L52.9492 30.6927Z" fill="black" stroke="#E9E9E9"/>
</svg>
