<svg width="259" height="47" viewBox="0 0 259 47" fill="none" xmlns="http://www.w3.org/2000/svg">
<path d="M5.13672 0.9375L8.47656 8.53125L11.8398 0.9375H15.9648L10.4219 11.8359V18H6.54297V11.8359L0.988281 0.9375H5.13672Z" fill="#F5F5F5"/>
<path d="M15.8945 11.7891V11.543C15.8945 10.6133 16.0273 9.75781 16.293 8.97656C16.5586 8.1875 16.9492 7.50391 17.4648 6.92578C17.9805 6.34766 18.6133 5.89844 19.3633 5.57812C20.1133 5.25 20.9727 5.08594 21.9414 5.08594C22.9258 5.08594 23.793 5.25 24.543 5.57812C25.3008 5.89844 25.9375 6.34766 26.4531 6.92578C26.9688 7.50391 27.3594 8.1875 27.625 8.97656C27.8906 9.75781 28.0234 10.6133 28.0234 11.543V11.7891C28.0234 12.7109 27.8906 13.5664 27.625 14.3555C27.3594 15.1367 26.9688 15.8203 26.4531 16.4062C25.9375 16.9844 25.3047 17.4336 24.5547 17.7539C23.8047 18.0742 22.9414 18.2344 21.9648 18.2344C20.9961 18.2344 20.1328 18.0742 19.375 17.7539C18.6172 17.4336 17.9805 16.9844 17.4648 16.4062C16.9492 15.8203 16.5586 15.1367 16.293 14.3555C16.0273 13.5664 15.8945 12.7109 15.8945 11.7891ZM19.5625 11.543V11.7891C19.5625 12.2891 19.6016 12.7578 19.6797 13.1953C19.7656 13.6328 19.9023 14.0156 20.0898 14.3438C20.2773 14.6719 20.5234 14.9297 20.8281 15.1172C21.1406 15.2969 21.5195 15.3867 21.9648 15.3867C22.4102 15.3867 22.7852 15.2969 23.0898 15.1172C23.3945 14.9297 23.6406 14.6719 23.8281 14.3438C24.0156 14.0156 24.1484 13.6328 24.2266 13.1953C24.3125 12.7578 24.3555 12.2891 24.3555 11.7891V11.543C24.3555 11.0508 24.3125 10.5898 24.2266 10.1602C24.1484 9.72266 24.0156 9.33594 23.8281 9C23.6406 8.66406 23.3906 8.40234 23.0781 8.21484C22.7734 8.02734 22.3945 7.93359 21.9414 7.93359C21.5039 7.93359 21.1328 8.02734 20.8281 8.21484C20.5234 8.40234 20.2773 8.66406 20.0898 9C19.9023 9.33594 19.7656 9.72266 19.6797 10.1602C19.6016 10.5898 19.5625 11.0508 19.5625 11.543Z" fill="#F5F5F5"/>
<path d="M37.3867 14.9414V5.32031H41.0664V18H37.6211L37.3867 14.9414ZM37.7734 12.3516L38.7812 12.3281C38.7812 13.1797 38.6797 13.9648 38.4766 14.6836C38.2812 15.4023 37.9844 16.0273 37.5859 16.5586C37.1953 17.0898 36.707 17.5039 36.1211 17.8008C35.543 18.0898 34.8672 18.2344 34.0938 18.2344C33.4688 18.2344 32.8945 18.1484 32.3711 17.9766C31.8555 17.7969 31.4102 17.5195 31.0352 17.1445C30.6602 16.7617 30.3711 16.2734 30.168 15.6797C29.9648 15.0781 29.8633 14.3594 29.8633 13.5234V5.32031H33.5195V13.5469C33.5195 13.875 33.5586 14.1562 33.6367 14.3906C33.7227 14.6172 33.8359 14.8047 33.9766 14.9531C34.125 15.1016 34.3047 15.2109 34.5156 15.2812C34.7344 15.3516 34.9727 15.3867 35.2305 15.3867C35.8789 15.3867 36.3867 15.2539 36.7539 14.9883C37.1289 14.7148 37.3906 14.3516 37.5391 13.8984C37.6953 13.4375 37.7734 12.9219 37.7734 12.3516Z" fill="#F5F5F5"/>
<path d="M47.1133 8.27344V18H43.457V5.32031H46.8906L47.1133 8.27344ZM50.8984 5.22656L50.8398 8.63672C50.6836 8.61328 50.4805 8.59375 50.2305 8.57812C49.9805 8.55469 49.7656 8.54297 49.5859 8.54297C49.1172 8.54297 48.7109 8.60156 48.3672 8.71875C48.0312 8.82812 47.75 8.99219 47.5234 9.21094C47.3047 9.42969 47.1406 9.70312 47.0312 10.0312C46.9219 10.3516 46.8672 10.7227 46.8672 11.1445L46.1758 10.8047C46.1758 9.96875 46.2578 9.20312 46.4219 8.50781C46.5859 7.8125 46.8242 7.21094 47.1367 6.70312C47.4492 6.1875 47.832 5.78906 48.2852 5.50781C48.7383 5.22656 49.2539 5.08594 49.832 5.08594C50.0195 5.08594 50.2109 5.09766 50.4062 5.12109C50.6016 5.14453 50.7656 5.17969 50.8984 5.22656Z" fill="#F5F5F5"/>
<path d="M72.6367 0.9375V18H68.8281L62.3828 6.97266V18H58.5625V0.9375H62.3828L68.8398 11.9648V0.9375H72.6367Z" fill="#F5F5F5"/>
<path d="M81.25 18.2344C80.2422 18.2344 79.3398 18.0742 78.543 17.7539C77.7461 17.4336 77.0703 16.9922 76.5156 16.4297C75.9688 15.8594 75.5508 15.2031 75.2617 14.4609C74.9727 13.7188 74.8281 12.9258 74.8281 12.082V11.6367C74.8281 10.6914 74.9609 9.82031 75.2266 9.02344C75.4922 8.22656 75.8789 7.53516 76.3867 6.94922C76.9023 6.35547 77.5352 5.89844 78.2852 5.57812C79.0352 5.25 79.8906 5.08594 80.8516 5.08594C81.75 5.08594 82.5508 5.23438 83.2539 5.53125C83.957 5.82031 84.5508 6.23828 85.0352 6.78516C85.5195 7.32422 85.8867 7.97656 86.1367 8.74219C86.3945 9.5 86.5234 10.3516 86.5234 11.2969V12.7969H76.3047V10.4414H82.9375V10.1602C82.9375 9.71484 82.8555 9.32422 82.6914 8.98828C82.5352 8.65234 82.3008 8.39453 81.9883 8.21484C81.6836 8.02734 81.2969 7.93359 80.8281 7.93359C80.3828 7.93359 80.0117 8.02734 79.7148 8.21484C79.418 8.40234 79.1797 8.66797 79 9.01172C78.8281 9.34766 78.7031 9.74219 78.625 10.1953C78.5469 10.6406 78.5078 11.1211 78.5078 11.6367V12.082C78.5078 12.5742 78.5742 13.0234 78.707 13.4297C78.8398 13.8359 79.0352 14.1836 79.293 14.4727C79.5508 14.7617 79.8633 14.9883 80.2305 15.1523C80.5977 15.3164 81.0156 15.3984 81.4844 15.3984C82.0625 15.3984 82.6133 15.2891 83.1367 15.0703C83.6602 14.8438 84.1133 14.4922 84.4961 14.0156L86.207 15.9727C85.9492 16.3477 85.5859 16.7109 85.1172 17.0625C84.6562 17.4062 84.1016 17.6875 83.4531 17.9062C82.8047 18.125 82.0703 18.2344 81.25 18.2344Z" fill="#F5F5F5"/>
<path d="M92.043 14.4727L94.5273 5.32031H96.8359L96.0508 9.39844L93.5664 18H91.6797L92.043 14.4727ZM90.9062 5.32031L92.5703 14.4375L92.7461 18H90.4961L87.3789 5.32031H90.9062ZM99.0859 14.2617L100.738 5.32031H104.266L101.172 18H98.9219L99.0859 14.2617ZM97.1172 5.32031L99.625 14.4258L99.9883 18H98.0781L95.6172 9.41016L94.8672 5.32031H97.1172Z" fill="#F5F5F5"/>
<path d="M115.82 0.9375V18H112V0.9375H115.82ZM122.535 8.13281V11.0859H114.754V8.13281H122.535ZM123.285 0.9375V3.90234H114.754V0.9375H123.285Z" fill="#F5F5F5"/>
<path d="M131.277 14.9766V9.53906C131.277 9.15625 131.219 8.82812 131.102 8.55469C130.984 8.28125 130.801 8.06641 130.551 7.91016C130.301 7.75391 129.977 7.67578 129.578 7.67578C129.242 7.67578 128.949 7.73438 128.699 7.85156C128.457 7.96875 128.27 8.13672 128.137 8.35547C128.012 8.57422 127.949 8.84375 127.949 9.16406H124.293C124.293 8.59375 124.422 8.0625 124.68 7.57031C124.938 7.07812 125.305 6.64453 125.781 6.26953C126.266 5.89453 126.844 5.60547 127.516 5.40234C128.188 5.19141 128.941 5.08594 129.777 5.08594C130.77 5.08594 131.652 5.25391 132.426 5.58984C133.207 5.91797 133.824 6.41406 134.277 7.07812C134.73 7.73438 134.957 8.5625 134.957 9.5625V14.8711C134.957 15.6367 135 16.2383 135.086 16.6758C135.18 17.1055 135.312 17.4805 135.484 17.8008V18H131.793C131.621 17.6328 131.492 17.1797 131.406 16.6406C131.32 16.0938 131.277 15.5391 131.277 14.9766ZM131.734 10.2656L131.758 12.2812H129.941C129.535 12.2812 129.184 12.332 128.887 12.4336C128.598 12.5352 128.363 12.6758 128.184 12.8555C128.004 13.0273 127.871 13.2305 127.785 13.4648C127.707 13.6914 127.668 13.9414 127.668 14.2148C127.668 14.4727 127.73 14.707 127.855 14.918C127.98 15.1211 128.152 15.2812 128.371 15.3984C128.59 15.5156 128.844 15.5742 129.133 15.5742C129.609 15.5742 130.016 15.4805 130.352 15.293C130.695 15.1055 130.961 14.8789 131.148 14.6133C131.336 14.3398 131.43 14.0859 131.43 13.8516L132.309 15.375C132.168 15.6875 131.996 16.0117 131.793 16.3477C131.59 16.6758 131.332 16.9844 131.02 17.2734C130.707 17.5547 130.328 17.7852 129.883 17.9648C129.445 18.1445 128.918 18.2344 128.301 18.2344C127.504 18.2344 126.781 18.0742 126.133 17.7539C125.484 17.4258 124.965 16.9766 124.574 16.4062C124.191 15.8359 124 15.1797 124 14.4375C124 13.7734 124.121 13.1836 124.363 12.668C124.605 12.1523 124.969 11.7148 125.453 11.3555C125.945 10.9961 126.562 10.7266 127.305 10.5469C128.047 10.3594 128.914 10.2656 129.906 10.2656H131.734Z" fill="#F5F5F5"/>
<path d="M141.613 15.4102L144.262 5.32031H148.105L143.898 18H141.59L141.613 15.4102ZM139.902 5.32031L142.539 15.4219L142.562 18H140.254L136.047 5.32031H139.902Z" fill="#F5F5F5"/>
<path d="M148.738 11.7891V11.543C148.738 10.6133 148.871 9.75781 149.137 8.97656C149.402 8.1875 149.793 7.50391 150.309 6.92578C150.824 6.34766 151.457 5.89844 152.207 5.57812C152.957 5.25 153.816 5.08594 154.785 5.08594C155.77 5.08594 156.637 5.25 157.387 5.57812C158.145 5.89844 158.781 6.34766 159.297 6.92578C159.812 7.50391 160.203 8.1875 160.469 8.97656C160.734 9.75781 160.867 10.6133 160.867 11.543V11.7891C160.867 12.7109 160.734 13.5664 160.469 14.3555C160.203 15.1367 159.812 15.8203 159.297 16.4062C158.781 16.9844 158.148 17.4336 157.398 17.7539C156.648 18.0742 155.785 18.2344 154.809 18.2344C153.84 18.2344 152.977 18.0742 152.219 17.7539C151.461 17.4336 150.824 16.9844 150.309 16.4062C149.793 15.8203 149.402 15.1367 149.137 14.3555C148.871 13.5664 148.738 12.7109 148.738 11.7891ZM152.406 11.543V11.7891C152.406 12.2891 152.445 12.7578 152.523 13.1953C152.609 13.6328 152.746 14.0156 152.934 14.3438C153.121 14.6719 153.367 14.9297 153.672 15.1172C153.984 15.2969 154.363 15.3867 154.809 15.3867C155.254 15.3867 155.629 15.2969 155.934 15.1172C156.238 14.9297 156.484 14.6719 156.672 14.3438C156.859 14.0156 156.992 13.6328 157.07 13.1953C157.156 12.7578 157.199 12.2891 157.199 11.7891V11.543C157.199 11.0508 157.156 10.5898 157.07 10.1602C156.992 9.72266 156.859 9.33594 156.672 9C156.484 8.66406 156.234 8.40234 155.922 8.21484C155.617 8.02734 155.238 7.93359 154.785 7.93359C154.348 7.93359 153.977 8.02734 153.672 8.21484C153.367 8.40234 153.121 8.66406 152.934 9C152.746 9.33594 152.609 9.72266 152.523 10.1602C152.445 10.5898 152.406 11.0508 152.406 11.543Z" fill="#F5F5F5"/>
<path d="M166.457 8.27344V18H162.801V5.32031H166.234L166.457 8.27344ZM170.242 5.22656L170.184 8.63672C170.027 8.61328 169.824 8.59375 169.574 8.57812C169.324 8.55469 169.109 8.54297 168.93 8.54297C168.461 8.54297 168.055 8.60156 167.711 8.71875C167.375 8.82812 167.094 8.99219 166.867 9.21094C166.648 9.42969 166.484 9.70312 166.375 10.0312C166.266 10.3516 166.211 10.7227 166.211 11.1445L165.52 10.8047C165.52 9.96875 165.602 9.20312 165.766 8.50781C165.93 7.8125 166.168 7.21094 166.48 6.70312C166.793 6.1875 167.176 5.78906 167.629 5.50781C168.082 5.22656 168.598 5.08594 169.176 5.08594C169.363 5.08594 169.555 5.09766 169.75 5.12109C169.945 5.14453 170.109 5.17969 170.242 5.22656Z" fill="#F5F5F5"/>
<path d="M175.598 5.32031V18H171.93V5.32031H175.598ZM171.707 2.03906C171.707 1.50781 171.895 1.07422 172.27 0.738281C172.645 0.394531 173.137 0.222656 173.746 0.222656C174.355 0.222656 174.848 0.394531 175.223 0.738281C175.605 1.07422 175.797 1.50781 175.797 2.03906C175.797 2.5625 175.605 2.99609 175.223 3.33984C174.848 3.67578 174.355 3.84375 173.746 3.84375C173.137 3.84375 172.645 3.67578 172.27 3.33984C171.895 2.99609 171.707 2.5625 171.707 2.03906Z" fill="#F5F5F5"/>
<path d="M184.68 5.32031V7.88672H177.156V5.32031H184.68ZM178.879 2.17969H182.547V14.0273C182.547 14.3789 182.59 14.6484 182.676 14.8359C182.762 15.0234 182.902 15.1562 183.098 15.2344C183.293 15.3047 183.543 15.3398 183.848 15.3398C184.066 15.3398 184.254 15.332 184.41 15.3164C184.566 15.3008 184.711 15.2812 184.844 15.2578V17.9062C184.531 18.0078 184.199 18.0859 183.848 18.1406C183.496 18.2031 183.113 18.2344 182.699 18.2344C181.91 18.2344 181.227 18.1055 180.648 17.8477C180.078 17.5898 179.641 17.1836 179.336 16.6289C179.031 16.0664 178.879 15.3359 178.879 14.4375V2.17969Z" fill="#F5F5F5"/>
<path d="M192.414 18.2344C191.406 18.2344 190.504 18.0742 189.707 17.7539C188.91 17.4336 188.234 16.9922 187.68 16.4297C187.133 15.8594 186.715 15.2031 186.426 14.4609C186.137 13.7188 185.992 12.9258 185.992 12.082V11.6367C185.992 10.6914 186.125 9.82031 186.391 9.02344C186.656 8.22656 187.043 7.53516 187.551 6.94922C188.066 6.35547 188.699 5.89844 189.449 5.57812C190.199 5.25 191.055 5.08594 192.016 5.08594C192.914 5.08594 193.715 5.23438 194.418 5.53125C195.121 5.82031 195.715 6.23828 196.199 6.78516C196.684 7.32422 197.051 7.97656 197.301 8.74219C197.559 9.5 197.688 10.3516 197.688 11.2969V12.7969H187.469V10.4414H194.102V10.1602C194.102 9.71484 194.02 9.32422 193.855 8.98828C193.699 8.65234 193.465 8.39453 193.152 8.21484C192.848 8.02734 192.461 7.93359 191.992 7.93359C191.547 7.93359 191.176 8.02734 190.879 8.21484C190.582 8.40234 190.344 8.66797 190.164 9.01172C189.992 9.34766 189.867 9.74219 189.789 10.1953C189.711 10.6406 189.672 11.1211 189.672 11.6367V12.082C189.672 12.5742 189.738 13.0234 189.871 13.4297C190.004 13.8359 190.199 14.1836 190.457 14.4727C190.715 14.7617 191.027 14.9883 191.395 15.1523C191.762 15.3164 192.18 15.3984 192.648 15.3984C193.227 15.3984 193.777 15.2891 194.301 15.0703C194.824 14.8438 195.277 14.4922 195.66 14.0156L197.371 15.9727C197.113 16.3477 196.75 16.7109 196.281 17.0625C195.82 17.4062 195.266 17.6875 194.617 17.9062C193.969 18.125 193.234 18.2344 192.414 18.2344Z" fill="#F5F5F5"/>
<path d="M214.48 13.5C214.48 13.2109 214.438 12.9531 214.352 12.7266C214.266 12.4922 214.109 12.2773 213.883 12.082C213.656 11.8867 213.336 11.6914 212.922 11.4961C212.508 11.293 211.965 11.0859 211.293 10.875C210.527 10.625 209.797 10.3438 209.102 10.0312C208.414 9.71094 207.801 9.33984 207.262 8.91797C206.723 8.49609 206.297 8.00391 205.984 7.44141C205.68 6.87891 205.527 6.22266 205.527 5.47266C205.527 4.74609 205.688 4.08984 206.008 3.50391C206.328 2.91797 206.777 2.41797 207.355 2.00391C207.934 1.58203 208.613 1.26172 209.395 1.04297C210.176 0.816406 211.035 0.703125 211.973 0.703125C213.223 0.703125 214.32 0.925781 215.266 1.37109C216.219 1.80859 216.961 2.42578 217.492 3.22266C218.023 4.01172 218.289 4.92969 218.289 5.97656H214.492C214.492 5.51562 214.395 5.10938 214.199 4.75781C214.012 4.39844 213.723 4.11719 213.332 3.91406C212.949 3.71094 212.469 3.60938 211.891 3.60938C211.328 3.60938 210.855 3.69531 210.473 3.86719C210.098 4.03125 209.812 4.25781 209.617 4.54688C209.43 4.83594 209.336 5.15234 209.336 5.49609C209.336 5.76953 209.406 6.01953 209.547 6.24609C209.695 6.46484 209.906 6.67188 210.18 6.86719C210.461 7.05469 210.805 7.23438 211.211 7.40625C211.617 7.57812 212.082 7.74219 212.605 7.89844C213.52 8.1875 214.328 8.50781 215.031 8.85938C215.742 9.21094 216.34 9.60938 216.824 10.0547C217.309 10.5 217.672 11.0039 217.914 11.5664C218.164 12.1289 218.289 12.7656 218.289 13.4766C218.289 14.2344 218.141 14.9062 217.844 15.4922C217.555 16.0781 217.133 16.5781 216.578 16.9922C216.031 17.3984 215.375 17.707 214.609 17.918C213.844 18.1289 212.988 18.2344 212.043 18.2344C211.184 18.2344 210.336 18.125 209.5 17.9062C208.664 17.6797 207.906 17.3359 207.227 16.875C206.555 16.4141 206.016 15.8281 205.609 15.1172C205.211 14.3984 205.012 13.5469 205.012 12.5625H208.832C208.832 13.0781 208.906 13.5156 209.055 13.875C209.203 14.2266 209.414 14.5117 209.688 14.7305C209.969 14.9492 210.309 15.1055 210.707 15.1992C211.105 15.293 211.551 15.3398 212.043 15.3398C212.613 15.3398 213.074 15.2617 213.426 15.1055C213.785 14.9414 214.051 14.7188 214.223 14.4375C214.395 14.1562 214.48 13.8438 214.48 13.5Z" fill="#F5F5F5"/>
<path d="M219.824 11.7891V11.543C219.824 10.6133 219.957 9.75781 220.223 8.97656C220.488 8.1875 220.879 7.50391 221.395 6.92578C221.91 6.34766 222.543 5.89844 223.293 5.57812C224.043 5.25 224.902 5.08594 225.871 5.08594C226.855 5.08594 227.723 5.25 228.473 5.57812C229.23 5.89844 229.867 6.34766 230.383 6.92578C230.898 7.50391 231.289 8.1875 231.555 8.97656C231.82 9.75781 231.953 10.6133 231.953 11.543V11.7891C231.953 12.7109 231.82 13.5664 231.555 14.3555C231.289 15.1367 230.898 15.8203 230.383 16.4062C229.867 16.9844 229.234 17.4336 228.484 17.7539C227.734 18.0742 226.871 18.2344 225.895 18.2344C224.926 18.2344 224.062 18.0742 223.305 17.7539C222.547 17.4336 221.91 16.9844 221.395 16.4062C220.879 15.8203 220.488 15.1367 220.223 14.3555C219.957 13.5664 219.824 12.7109 219.824 11.7891ZM223.492 11.543V11.7891C223.492 12.2891 223.531 12.7578 223.609 13.1953C223.695 13.6328 223.832 14.0156 224.02 14.3438C224.207 14.6719 224.453 14.9297 224.758 15.1172C225.07 15.2969 225.449 15.3867 225.895 15.3867C226.34 15.3867 226.715 15.2969 227.02 15.1172C227.324 14.9297 227.57 14.6719 227.758 14.3438C227.945 14.0156 228.078 13.6328 228.156 13.1953C228.242 12.7578 228.285 12.2891 228.285 11.7891V11.543C228.285 11.0508 228.242 10.5898 228.156 10.1602C228.078 9.72266 227.945 9.33594 227.758 9C227.57 8.66406 227.32 8.40234 227.008 8.21484C226.703 8.02734 226.324 7.93359 225.871 7.93359C225.434 7.93359 225.062 8.02734 224.758 8.21484C224.453 8.40234 224.207 8.66406 224.02 9C223.832 9.33594 223.695 9.72266 223.609 10.1602C223.531 10.5898 223.492 11.0508 223.492 11.543Z" fill="#F5F5F5"/>
<path d="M237.461 8.02734V18H233.793V5.32031H237.238L237.461 8.02734ZM236.98 11.2148L236.066 11.2383C236.066 10.2852 236.184 9.42969 236.418 8.67188C236.652 7.91406 236.984 7.26953 237.414 6.73828C237.852 6.19922 238.371 5.78906 238.973 5.50781C239.582 5.22656 240.254 5.08594 240.988 5.08594C241.582 5.08594 242.125 5.17188 242.617 5.34375C243.109 5.51562 243.531 5.79297 243.883 6.17578C244.242 6.55078 244.516 7.05078 244.703 7.67578C244.891 8.29297 244.984 9.05469 244.984 9.96094V18H241.305V9.94922C241.305 9.41797 241.23 9.00781 241.082 8.71875C240.934 8.42969 240.715 8.22656 240.426 8.10938C240.145 7.99219 239.801 7.93359 239.395 7.93359C238.965 7.93359 238.598 8.01953 238.293 8.19141C237.988 8.35547 237.738 8.58594 237.543 8.88281C237.348 9.17969 237.203 9.52734 237.109 9.92578C237.023 10.3242 236.98 10.7539 236.98 11.2148Z" fill="#F5F5F5"/>
<path d="M255.367 5.32031H258.695V17.543C258.695 18.707 258.43 19.6953 257.898 20.5078C257.375 21.3203 256.645 21.9375 255.707 22.3594C254.77 22.7812 253.672 22.9922 252.414 22.9922C251.867 22.9922 251.297 22.918 250.703 22.7695C250.109 22.6289 249.551 22.4141 249.027 22.125C248.504 21.8438 248.066 21.4844 247.715 21.0469L249.273 18.8906C249.633 19.2969 250.062 19.625 250.562 19.875C251.062 20.1328 251.633 20.2617 252.273 20.2617C252.859 20.2617 253.355 20.1562 253.762 19.9453C254.168 19.7344 254.477 19.4258 254.688 19.0195C254.906 18.6133 255.016 18.1211 255.016 17.543V8.28516L255.367 5.32031ZM246.895 11.8125V11.5664C246.895 10.6055 247.012 9.73047 247.246 8.94141C247.48 8.14453 247.82 7.46094 248.266 6.89062C248.719 6.3125 249.262 5.86719 249.895 5.55469C250.535 5.24219 251.254 5.08594 252.051 5.08594C252.91 5.08594 253.621 5.25 254.184 5.57812C254.746 5.89844 255.203 6.35156 255.555 6.9375C255.906 7.51562 256.184 8.19922 256.387 8.98828C256.59 9.76953 256.754 10.6172 256.879 11.5312V11.9531C256.754 12.8281 256.574 13.6445 256.34 14.4023C256.105 15.1602 255.801 15.8281 255.426 16.4062C255.051 16.9766 254.582 17.4258 254.02 17.7539C253.465 18.0742 252.801 18.2344 252.027 18.2344C251.238 18.2344 250.527 18.0742 249.895 17.7539C249.262 17.4336 248.719 16.9844 248.266 16.4062C247.82 15.8281 247.48 15.1484 247.246 14.3672C247.012 13.5859 246.895 12.7344 246.895 11.8125ZM250.551 11.5664V11.8125C250.551 12.3125 250.598 12.7773 250.691 13.207C250.793 13.6367 250.941 14.0156 251.137 14.3438C251.34 14.6719 251.59 14.9297 251.887 15.1172C252.191 15.2969 252.547 15.3867 252.953 15.3867C253.547 15.3867 254.027 15.2617 254.395 15.0117C254.77 14.7539 255.043 14.3984 255.215 13.9453C255.395 13.4922 255.488 12.9648 255.496 12.3633V11.1328C255.496 10.6328 255.445 10.1836 255.344 9.78516C255.242 9.38672 255.09 9.05078 254.887 8.77734C254.691 8.50391 254.434 8.29688 254.113 8.15625C253.801 8.00781 253.422 7.93359 252.977 7.93359C252.578 7.93359 252.227 8.02734 251.922 8.21484C251.617 8.39453 251.363 8.64844 251.16 8.97656C250.957 9.30469 250.805 9.69141 250.703 10.1367C250.602 10.5742 250.551 11.0508 250.551 11.5664Z" fill="#F5F5F5"/>
<path d="M5.86328 43.75L9.12109 33.3203H10.5508L10.2695 35.3945L6.95312 46H5.55859L5.86328 43.75ZM3.67188 33.3203L6.44922 43.8672L6.64844 46H5.18359L1.50391 33.3203H3.67188ZM13.668 43.7852L16.3164 33.3203H18.4727L14.793 46H13.3398L13.668 43.7852ZM10.8672 33.3203L14.0547 43.5742L14.418 46H13.0352L9.625 35.3711L9.34375 33.3203H10.8672Z" fill="#F5F5F5"/>
<path d="M23.0547 33.3203V46H20.875V33.3203H23.0547ZM20.7109 29.957C20.7109 29.6055 20.8164 29.3086 21.0273 29.0664C21.2461 28.8242 21.5664 28.7031 21.9883 28.7031C22.4023 28.7031 22.7188 28.8242 22.9375 29.0664C23.1641 29.3086 23.2773 29.6055 23.2773 29.957C23.2773 30.293 23.1641 30.582 22.9375 30.8242C22.7188 31.0586 22.4023 31.1758 21.9883 31.1758C21.5664 31.1758 21.2461 31.0586 21.0273 30.8242C20.8164 30.582 20.7109 30.293 20.7109 29.957Z" fill="#F5F5F5"/>
<path d="M31.8438 33.3203V34.9844H24.9883V33.3203H31.8438ZM27.3086 30.2383H29.4766V42.8594C29.4766 43.2891 29.543 43.6133 29.6758 43.832C29.8086 44.0508 29.9805 44.1953 30.1914 44.2656C30.4023 44.3359 30.6289 44.3711 30.8711 44.3711C31.0508 44.3711 31.2383 44.3555 31.4336 44.3242C31.6367 44.2852 31.7891 44.2539 31.8906 44.2305L31.9023 46C31.7305 46.0547 31.5039 46.1055 31.2227 46.1523C30.9492 46.207 30.6172 46.2344 30.2266 46.2344C29.6953 46.2344 29.207 46.1289 28.7617 45.918C28.3164 45.707 27.9609 45.3555 27.6953 44.8633C27.4375 44.3633 27.3086 43.6914 27.3086 42.8477V30.2383Z" fill="#F5F5F5"/>
<path d="M36.5547 28V46H34.3867V28H36.5547ZM36.0391 39.1797L35.1367 39.1445C35.1445 38.2773 35.2734 37.4766 35.5234 36.7422C35.7734 36 36.125 35.3555 36.5781 34.8086C37.0312 34.2617 37.5703 33.8398 38.1953 33.543C38.8281 33.2383 39.5273 33.0859 40.293 33.0859C40.918 33.0859 41.4805 33.1719 41.9805 33.3438C42.4805 33.5078 42.9062 33.7734 43.2578 34.1406C43.6172 34.5078 43.8906 34.9844 44.0781 35.5703C44.2656 36.1484 44.3594 36.8555 44.3594 37.6914V46H42.1797V37.668C42.1797 37.0039 42.082 36.4727 41.8867 36.0742C41.6914 35.668 41.4062 35.375 41.0312 35.1953C40.6562 35.0078 40.1953 34.9141 39.6484 34.9141C39.1094 34.9141 38.6172 35.0273 38.1719 35.2539C37.7344 35.4805 37.3555 35.793 37.0352 36.1914C36.7227 36.5898 36.4766 37.0469 36.2969 37.5625C36.125 38.0703 36.0391 38.6094 36.0391 39.1797Z" fill="#F5F5F5"/>
<path d="M64.2344 44.1602V46H55.7031V44.1602H64.2344ZM56.1484 28.9375V46H53.8867V28.9375H56.1484Z" fill="#F5F5F5"/>
<path d="M73.9727 43.832V37.3047C73.9727 36.8047 73.8711 36.3711 73.668 36.0039C73.4727 35.6289 73.1758 35.3398 72.7773 35.1367C72.3789 34.9336 71.8867 34.832 71.3008 34.832C70.7539 34.832 70.2734 34.9258 69.8594 35.1133C69.4531 35.3008 69.1328 35.5469 68.8984 35.8516C68.6719 36.1562 68.5586 36.4844 68.5586 36.8359H66.3906C66.3906 36.3828 66.5078 35.9336 66.7422 35.4883C66.9766 35.043 67.3125 34.6406 67.75 34.2812C68.1953 33.9141 68.7266 33.625 69.3438 33.4141C69.9688 33.1953 70.6641 33.0859 71.4297 33.0859C72.3516 33.0859 73.1641 33.2422 73.8672 33.5547C74.5781 33.8672 75.1328 34.3398 75.5312 34.9727C75.9375 35.5977 76.1406 36.3828 76.1406 37.3281V43.2344C76.1406 43.6562 76.1758 44.1055 76.2461 44.582C76.3242 45.0586 76.4375 45.4688 76.5859 45.8125V46H74.3242C74.2148 45.75 74.1289 45.418 74.0664 45.0039C74.0039 44.582 73.9727 44.1914 73.9727 43.832ZM74.3477 38.3125L74.3711 39.8359H72.1797C71.5625 39.8359 71.0117 39.8867 70.5273 39.9883C70.043 40.082 69.6367 40.2266 69.3086 40.4219C68.9805 40.6172 68.7305 40.8633 68.5586 41.1602C68.3867 41.4492 68.3008 41.7891 68.3008 42.1797C68.3008 42.5781 68.3906 42.9414 68.5703 43.2695C68.75 43.5977 69.0195 43.8594 69.3789 44.0547C69.7461 44.2422 70.1953 44.3359 70.7266 44.3359C71.3906 44.3359 71.9766 44.1953 72.4844 43.9141C72.9922 43.6328 73.3945 43.2891 73.6914 42.8828C73.9961 42.4766 74.1602 42.082 74.1836 41.6992L75.1094 42.7422C75.0547 43.0703 74.9062 43.4336 74.6641 43.832C74.4219 44.2305 74.0977 44.6133 73.6914 44.9805C73.293 45.3398 72.8164 45.6406 72.2617 45.8828C71.7148 46.1172 71.0977 46.2344 70.4102 46.2344C69.5508 46.2344 68.7969 46.0664 68.1484 45.7305C67.5078 45.3945 67.0078 44.9453 66.6484 44.3828C66.2969 43.8125 66.1211 43.1758 66.1211 42.4727C66.1211 41.793 66.2539 41.1953 66.5195 40.6797C66.7852 40.1562 67.168 39.7227 67.668 39.3789C68.168 39.0273 68.7695 38.7617 69.4727 38.582C70.1758 38.4023 70.9609 38.3125 71.8281 38.3125H74.3477Z" fill="#F5F5F5"/>
<path d="M87.3086 43.0703V33.3203H89.4883V46H87.4141L87.3086 43.0703ZM87.7188 40.3984L88.6211 40.375C88.6211 41.2188 88.5312 42 88.3516 42.7188C88.1797 43.4297 87.8984 44.0469 87.5078 44.5703C87.1172 45.0938 86.6055 45.5039 85.9727 45.8008C85.3398 46.0898 84.5703 46.2344 83.6641 46.2344C83.0469 46.2344 82.4805 46.1445 81.9648 45.9648C81.457 45.7852 81.0195 45.5078 80.6523 45.1328C80.2852 44.7578 80 44.2695 79.7969 43.668C79.6016 43.0664 79.5039 42.3438 79.5039 41.5V33.3203H81.6719V41.5234C81.6719 42.0938 81.7344 42.5664 81.8594 42.9414C81.9922 43.3086 82.168 43.6016 82.3867 43.8203C82.6133 44.0312 82.8633 44.1797 83.1367 44.2656C83.418 44.3516 83.707 44.3945 84.0039 44.3945C84.9258 44.3945 85.6562 44.2188 86.1953 43.8672C86.7344 43.5078 87.1211 43.0273 87.3555 42.4258C87.5977 41.8164 87.7188 41.1406 87.7188 40.3984Z" fill="#F5F5F5"/>
<path d="M94.9609 35.3125V46H92.793V33.3203H94.9023L94.9609 35.3125ZM98.9219 33.25L98.9102 35.2656C98.7305 35.2266 98.5586 35.2031 98.3945 35.1953C98.2383 35.1797 98.0586 35.1719 97.8555 35.1719C97.3555 35.1719 96.9141 35.25 96.5312 35.4062C96.1484 35.5625 95.8242 35.7812 95.5586 36.0625C95.293 36.3438 95.082 36.6797 94.9258 37.0703C94.7773 37.4531 94.6797 37.875 94.6328 38.3359L94.0234 38.6875C94.0234 37.9219 94.0977 37.2031 94.2461 36.5312C94.4023 35.8594 94.6406 35.2656 94.9609 34.75C95.2812 34.2266 95.6875 33.8203 96.1797 33.5312C96.6797 33.2344 97.2734 33.0859 97.9609 33.0859C98.1172 33.0859 98.2969 33.1055 98.5 33.1445C98.7031 33.1758 98.8438 33.2109 98.9219 33.25Z" fill="#F5F5F5"/>
<path d="M107.934 43.832V37.3047C107.934 36.8047 107.832 36.3711 107.629 36.0039C107.434 35.6289 107.137 35.3398 106.738 35.1367C106.34 34.9336 105.848 34.832 105.262 34.832C104.715 34.832 104.234 34.9258 103.82 35.1133C103.414 35.3008 103.094 35.5469 102.859 35.8516C102.633 36.1562 102.52 36.4844 102.52 36.8359H100.352C100.352 36.3828 100.469 35.9336 100.703 35.4883C100.938 35.043 101.273 34.6406 101.711 34.2812C102.156 33.9141 102.688 33.625 103.305 33.4141C103.93 33.1953 104.625 33.0859 105.391 33.0859C106.312 33.0859 107.125 33.2422 107.828 33.5547C108.539 33.8672 109.094 34.3398 109.492 34.9727C109.898 35.5977 110.102 36.3828 110.102 37.3281V43.2344C110.102 43.6562 110.137 44.1055 110.207 44.582C110.285 45.0586 110.398 45.4688 110.547 45.8125V46H108.285C108.176 45.75 108.09 45.418 108.027 45.0039C107.965 44.582 107.934 44.1914 107.934 43.832ZM108.309 38.3125L108.332 39.8359H106.141C105.523 39.8359 104.973 39.8867 104.488 39.9883C104.004 40.082 103.598 40.2266 103.27 40.4219C102.941 40.6172 102.691 40.8633 102.52 41.1602C102.348 41.4492 102.262 41.7891 102.262 42.1797C102.262 42.5781 102.352 42.9414 102.531 43.2695C102.711 43.5977 102.98 43.8594 103.34 44.0547C103.707 44.2422 104.156 44.3359 104.688 44.3359C105.352 44.3359 105.938 44.1953 106.445 43.9141C106.953 43.6328 107.355 43.2891 107.652 42.8828C107.957 42.4766 108.121 42.082 108.145 41.6992L109.07 42.7422C109.016 43.0703 108.867 43.4336 108.625 43.832C108.383 44.2305 108.059 44.6133 107.652 44.9805C107.254 45.3398 106.777 45.6406 106.223 45.8828C105.676 46.1172 105.059 46.2344 104.371 46.2344C103.512 46.2344 102.758 46.0664 102.109 45.7305C101.469 45.3945 100.969 44.9453 100.609 44.3828C100.258 43.8125 100.082 43.1758 100.082 42.4727C100.082 41.793 100.215 41.1953 100.48 40.6797C100.746 40.1562 101.129 39.7227 101.629 39.3789C102.129 39.0273 102.73 38.7617 103.434 38.582C104.137 38.4023 104.922 38.3125 105.789 38.3125H108.309Z" fill="#F5F5F5"/>
<path d="M126.953 41.0195V28.9375H129.203V41.0195C129.203 42.1445 128.973 43.0938 128.512 43.8672C128.051 44.6406 127.414 45.2305 126.602 45.6367C125.797 46.0352 124.871 46.2344 123.824 46.2344C122.777 46.2344 121.848 46.0547 121.035 45.6953C120.223 45.3359 119.586 44.7891 119.125 44.0547C118.664 43.3203 118.434 42.3945 118.434 41.2773H120.695C120.695 41.9961 120.828 42.5859 121.094 43.0469C121.359 43.5078 121.727 43.8477 122.195 44.0664C122.672 44.2852 123.215 44.3945 123.824 44.3945C124.418 44.3945 124.949 44.2695 125.418 44.0195C125.895 43.7617 126.27 43.3828 126.543 42.8828C126.816 42.375 126.953 41.7539 126.953 41.0195Z" fill="#F5F5F5"/>
<path d="M140.184 43.832V37.3047C140.184 36.8047 140.082 36.3711 139.879 36.0039C139.684 35.6289 139.387 35.3398 138.988 35.1367C138.59 34.9336 138.098 34.832 137.512 34.832C136.965 34.832 136.484 34.9258 136.07 35.1133C135.664 35.3008 135.344 35.5469 135.109 35.8516C134.883 36.1562 134.77 36.4844 134.77 36.8359H132.602C132.602 36.3828 132.719 35.9336 132.953 35.4883C133.188 35.043 133.523 34.6406 133.961 34.2812C134.406 33.9141 134.938 33.625 135.555 33.4141C136.18 33.1953 136.875 33.0859 137.641 33.0859C138.562 33.0859 139.375 33.2422 140.078 33.5547C140.789 33.8672 141.344 34.3398 141.742 34.9727C142.148 35.5977 142.352 36.3828 142.352 37.3281V43.2344C142.352 43.6562 142.387 44.1055 142.457 44.582C142.535 45.0586 142.648 45.4688 142.797 45.8125V46H140.535C140.426 45.75 140.34 45.418 140.277 45.0039C140.215 44.582 140.184 44.1914 140.184 43.832ZM140.559 38.3125L140.582 39.8359H138.391C137.773 39.8359 137.223 39.8867 136.738 39.9883C136.254 40.082 135.848 40.2266 135.52 40.4219C135.191 40.6172 134.941 40.8633 134.77 41.1602C134.598 41.4492 134.512 41.7891 134.512 42.1797C134.512 42.5781 134.602 42.9414 134.781 43.2695C134.961 43.5977 135.23 43.8594 135.59 44.0547C135.957 44.2422 136.406 44.3359 136.938 44.3359C137.602 44.3359 138.188 44.1953 138.695 43.9141C139.203 43.6328 139.605 43.2891 139.902 42.8828C140.207 42.4766 140.371 42.082 140.395 41.6992L141.32 42.7422C141.266 43.0703 141.117 43.4336 140.875 43.832C140.633 44.2305 140.309 44.6133 139.902 44.9805C139.504 45.3398 139.027 45.6406 138.473 45.8828C137.926 46.1172 137.309 46.2344 136.621 46.2344C135.762 46.2344 135.008 46.0664 134.359 45.7305C133.719 45.3945 133.219 44.9453 132.859 44.3828C132.508 43.8125 132.332 43.1758 132.332 42.4727C132.332 41.793 132.465 41.1953 132.73 40.6797C132.996 40.1562 133.379 39.7227 133.879 39.3789C134.379 39.0273 134.98 38.7617 135.684 38.582C136.387 38.4023 137.172 38.3125 138.039 38.3125H140.559Z" fill="#F5F5F5"/>
<path d="M147.93 36.0273V46H145.762V33.3203H147.812L147.93 36.0273ZM147.414 39.1797L146.512 39.1445C146.52 38.2773 146.648 37.4766 146.898 36.7422C147.148 36 147.5 35.3555 147.953 34.8086C148.406 34.2617 148.945 33.8398 149.57 33.543C150.203 33.2383 150.902 33.0859 151.668 33.0859C152.293 33.0859 152.855 33.1719 153.355 33.3438C153.855 33.5078 154.281 33.7734 154.633 34.1406C154.992 34.5078 155.266 34.9844 155.453 35.5703C155.641 36.1484 155.734 36.8555 155.734 37.6914V46H153.555V37.668C153.555 37.0039 153.457 36.4727 153.262 36.0742C153.066 35.668 152.781 35.375 152.406 35.1953C152.031 35.0078 151.57 34.9141 151.023 34.9141C150.484 34.9141 149.992 35.0273 149.547 35.2539C149.109 35.4805 148.73 35.793 148.41 36.1914C148.098 36.5898 147.852 37.0469 147.672 37.5625C147.5 38.0703 147.414 38.6094 147.414 39.1797Z" fill="#F5F5F5"/>
<path d="M164.289 46.2344C163.406 46.2344 162.605 46.0859 161.887 45.7891C161.176 45.4844 160.562 45.0586 160.047 44.5117C159.539 43.9648 159.148 43.3164 158.875 42.5664C158.602 41.8164 158.465 40.9961 158.465 40.1055V39.6133C158.465 38.582 158.617 37.6641 158.922 36.8594C159.227 36.0469 159.641 35.3594 160.164 34.7969C160.688 34.2344 161.281 33.8086 161.945 33.5195C162.609 33.2305 163.297 33.0859 164.008 33.0859C164.914 33.0859 165.695 33.2422 166.352 33.5547C167.016 33.8672 167.559 34.3047 167.98 34.8672C168.402 35.4219 168.715 36.0781 168.918 36.8359C169.121 37.5859 169.223 38.4062 169.223 39.2969V40.2695H159.754V38.5H167.055V38.3359C167.023 37.7734 166.906 37.2266 166.703 36.6953C166.508 36.1641 166.195 35.7266 165.766 35.3828C165.336 35.0391 164.75 34.8672 164.008 34.8672C163.516 34.8672 163.062 34.9727 162.648 35.1836C162.234 35.3867 161.879 35.6914 161.582 36.0977C161.285 36.5039 161.055 37 160.891 37.5859C160.727 38.1719 160.645 38.8477 160.645 39.6133V40.1055C160.645 40.707 160.727 41.2734 160.891 41.8047C161.062 42.3281 161.309 42.7891 161.629 43.1875C161.957 43.5859 162.352 43.8984 162.812 44.125C163.281 44.3516 163.812 44.4648 164.406 44.4648C165.172 44.4648 165.82 44.3086 166.352 43.9961C166.883 43.6836 167.348 43.2656 167.746 42.7422L169.059 43.7852C168.785 44.1992 168.438 44.5938 168.016 44.9688C167.594 45.3438 167.074 45.6484 166.457 45.8828C165.848 46.1172 165.125 46.2344 164.289 46.2344Z" fill="#F5F5F5"/>
<path d="M190.645 37.5039V43.75C190.434 44.0625 190.098 44.4141 189.637 44.8047C189.176 45.1875 188.539 45.5234 187.727 45.8125C186.922 46.0938 185.883 46.2344 184.609 46.2344C183.57 46.2344 182.613 46.0547 181.738 45.6953C180.871 45.3281 180.117 44.7969 179.477 44.1016C178.844 43.3984 178.352 42.5469 178 41.5469C177.656 40.5391 177.484 39.3984 177.484 38.125V36.8008C177.484 35.5273 177.633 34.3906 177.93 33.3906C178.234 32.3906 178.68 31.543 179.266 30.8477C179.852 30.1445 180.57 29.6133 181.422 29.2539C182.273 28.8867 183.25 28.7031 184.352 28.7031C185.656 28.7031 186.746 28.9297 187.621 29.3828C188.504 29.8281 189.191 30.4453 189.684 31.2344C190.184 32.0234 190.504 32.9219 190.645 33.9297H188.383C188.281 33.3125 188.078 32.75 187.773 32.2422C187.477 31.7344 187.051 31.3281 186.496 31.0234C185.941 30.7109 185.227 30.5547 184.352 30.5547C183.562 30.5547 182.879 30.6992 182.301 30.9883C181.723 31.2773 181.246 31.6914 180.871 32.2305C180.496 32.7695 180.215 33.4219 180.027 34.1875C179.848 34.9531 179.758 35.8164 179.758 36.7773V38.125C179.758 39.1094 179.871 39.9883 180.098 40.7617C180.332 41.5352 180.664 42.1953 181.094 42.7422C181.523 43.2812 182.035 43.6914 182.629 43.9727C183.23 44.2539 183.895 44.3945 184.621 44.3945C185.426 44.3945 186.078 44.3281 186.578 44.1953C187.078 44.0547 187.469 43.8906 187.75 43.7031C188.031 43.5078 188.246 43.3242 188.395 43.1523V39.332H184.445V37.5039H190.645Z" fill="#F5F5F5"/>
<path d="M196.234 35.3125V46H194.066V33.3203H196.176L196.234 35.3125ZM200.195 33.25L200.184 35.2656C200.004 35.2266 199.832 35.2031 199.668 35.1953C199.512 35.1797 199.332 35.1719 199.129 35.1719C198.629 35.1719 198.188 35.25 197.805 35.4062C197.422 35.5625 197.098 35.7812 196.832 36.0625C196.566 36.3438 196.355 36.6797 196.199 37.0703C196.051 37.4531 195.953 37.875 195.906 38.3359L195.297 38.6875C195.297 37.9219 195.371 37.2031 195.52 36.5312C195.676 35.8594 195.914 35.2656 196.234 34.75C196.555 34.2266 196.961 33.8203 197.453 33.5312C197.953 33.2344 198.547 33.0859 199.234 33.0859C199.391 33.0859 199.57 33.1055 199.773 33.1445C199.977 33.1758 200.117 33.2109 200.195 33.25Z" fill="#F5F5F5"/>
<path d="M209.207 43.832V37.3047C209.207 36.8047 209.105 36.3711 208.902 36.0039C208.707 35.6289 208.41 35.3398 208.012 35.1367C207.613 34.9336 207.121 34.832 206.535 34.832C205.988 34.832 205.508 34.9258 205.094 35.1133C204.688 35.3008 204.367 35.5469 204.133 35.8516C203.906 36.1562 203.793 36.4844 203.793 36.8359H201.625C201.625 36.3828 201.742 35.9336 201.977 35.4883C202.211 35.043 202.547 34.6406 202.984 34.2812C203.43 33.9141 203.961 33.625 204.578 33.4141C205.203 33.1953 205.898 33.0859 206.664 33.0859C207.586 33.0859 208.398 33.2422 209.102 33.5547C209.812 33.8672 210.367 34.3398 210.766 34.9727C211.172 35.5977 211.375 36.3828 211.375 37.3281V43.2344C211.375 43.6562 211.41 44.1055 211.48 44.582C211.559 45.0586 211.672 45.4688 211.82 45.8125V46H209.559C209.449 45.75 209.363 45.418 209.301 45.0039C209.238 44.582 209.207 44.1914 209.207 43.832ZM209.582 38.3125L209.605 39.8359H207.414C206.797 39.8359 206.246 39.8867 205.762 39.9883C205.277 40.082 204.871 40.2266 204.543 40.4219C204.215 40.6172 203.965 40.8633 203.793 41.1602C203.621 41.4492 203.535 41.7891 203.535 42.1797C203.535 42.5781 203.625 42.9414 203.805 43.2695C203.984 43.5977 204.254 43.8594 204.613 44.0547C204.98 44.2422 205.43 44.3359 205.961 44.3359C206.625 44.3359 207.211 44.1953 207.719 43.9141C208.227 43.6328 208.629 43.2891 208.926 42.8828C209.23 42.4766 209.395 42.082 209.418 41.6992L210.344 42.7422C210.289 43.0703 210.141 43.4336 209.898 43.832C209.656 44.2305 209.332 44.6133 208.926 44.9805C208.527 45.3398 208.051 45.6406 207.496 45.8828C206.949 46.1172 206.332 46.2344 205.645 46.2344C204.785 46.2344 204.031 46.0664 203.383 45.7305C202.742 45.3945 202.242 44.9453 201.883 44.3828C201.531 43.8125 201.355 43.1758 201.355 42.4727C201.355 41.793 201.488 41.1953 201.754 40.6797C202.02 40.1562 202.402 39.7227 202.902 39.3789C203.402 39.0273 204.004 38.7617 204.707 38.582C205.41 38.4023 206.195 38.3125 207.062 38.3125H209.582Z" fill="#F5F5F5"/>
<path d="M219.859 44.4531C220.375 44.4531 220.852 44.3477 221.289 44.1367C221.727 43.9258 222.086 43.6367 222.367 43.2695C222.648 42.8945 222.809 42.4688 222.848 41.9922H224.91C224.871 42.7422 224.617 43.4414 224.148 44.0898C223.688 44.7305 223.082 45.25 222.332 45.6484C221.582 46.0391 220.758 46.2344 219.859 46.2344C218.906 46.2344 218.074 46.0664 217.363 45.7305C216.66 45.3945 216.074 44.9336 215.605 44.3477C215.145 43.7617 214.797 43.0898 214.562 42.332C214.336 41.5664 214.223 40.7578 214.223 39.9062V39.4141C214.223 38.5625 214.336 37.7578 214.562 37C214.797 36.2344 215.145 35.5586 215.605 34.9727C216.074 34.3867 216.66 33.9258 217.363 33.5898C218.074 33.2539 218.906 33.0859 219.859 33.0859C220.852 33.0859 221.719 33.2891 222.461 33.6953C223.203 34.0938 223.785 34.6406 224.207 35.3359C224.637 36.0234 224.871 36.8047 224.91 37.6797H222.848C222.809 37.1562 222.66 36.6836 222.402 36.2617C222.152 35.8398 221.809 35.5039 221.371 35.2539C220.941 34.9961 220.438 34.8672 219.859 34.8672C219.195 34.8672 218.637 35 218.184 35.2656C217.738 35.5234 217.383 35.875 217.117 36.3203C216.859 36.7578 216.672 37.2461 216.555 37.7852C216.445 38.3164 216.391 38.8594 216.391 39.4141V39.9062C216.391 40.4609 216.445 41.0078 216.555 41.5469C216.664 42.0859 216.848 42.5742 217.105 43.0117C217.371 43.4492 217.727 43.8008 218.172 44.0664C218.625 44.3242 219.188 44.4531 219.859 44.4531Z" fill="#F5F5F5"/>
<path d="M232.609 46.2344C231.727 46.2344 230.926 46.0859 230.207 45.7891C229.496 45.4844 228.883 45.0586 228.367 44.5117C227.859 43.9648 227.469 43.3164 227.195 42.5664C226.922 41.8164 226.785 40.9961 226.785 40.1055V39.6133C226.785 38.582 226.938 37.6641 227.242 36.8594C227.547 36.0469 227.961 35.3594 228.484 34.7969C229.008 34.2344 229.602 33.8086 230.266 33.5195C230.93 33.2305 231.617 33.0859 232.328 33.0859C233.234 33.0859 234.016 33.2422 234.672 33.5547C235.336 33.8672 235.879 34.3047 236.301 34.8672C236.723 35.4219 237.035 36.0781 237.238 36.8359C237.441 37.5859 237.543 38.4062 237.543 39.2969V40.2695H228.074V38.5H235.375V38.3359C235.344 37.7734 235.227 37.2266 235.023 36.6953C234.828 36.1641 234.516 35.7266 234.086 35.3828C233.656 35.0391 233.07 34.8672 232.328 34.8672C231.836 34.8672 231.383 34.9727 230.969 35.1836C230.555 35.3867 230.199 35.6914 229.902 36.0977C229.605 36.5039 229.375 37 229.211 37.5859C229.047 38.1719 228.965 38.8477 228.965 39.6133V40.1055C228.965 40.707 229.047 41.2734 229.211 41.8047C229.383 42.3281 229.629 42.7891 229.949 43.1875C230.277 43.5859 230.672 43.8984 231.133 44.125C231.602 44.3516 232.133 44.4648 232.727 44.4648C233.492 44.4648 234.141 44.3086 234.672 43.9961C235.203 43.6836 235.668 43.2656 236.066 42.7422L237.379 43.7852C237.105 44.1992 236.758 44.5938 236.336 44.9688C235.914 45.3438 235.395 45.6484 234.777 45.8828C234.168 46.1172 233.445 46.2344 232.609 46.2344Z" fill="#F5F5F5"/>
</svg>
